<svg xmlns="http://www.w3.org/2000/svg" xmlns:xlink="http://www.w3.org/1999/xlink" fill="none" version="1.1" width="344" height="242" viewBox="0 0 344 242"><defs><clipPath id="master_svg0_222_00554"><rect x="40" y="92" width="264" height="58" rx="0"/></clipPath></defs><g><rect x="0" y="0" width="344" height="242" rx="0" fill="#F2F2F2" fill-opacity="1"/><g clip-path="url(#master_svg0_222_00554)"><g><g><g><path d="M43,111.5C43,112.32849999999999,43.671573,113,44.5,113C44.5,113,59.5,113,59.5,113C60.3285,113,61,112.32849999999999,61,111.5C61,111.5,61,96.5,61,96.5C61,95.671576,60.3285,95,59.5,95C59.5,95,44.5,95,44.5,95C43.671576,95,43,95.671573,43,96.5C43,96.5,43,111.5,43,111.5C43,111.5,43,111.5,43,111.5ZM50.49996,106.0356C50.49996,106.0356,56.1623,100.37344,56.1623,100.37344C56.1623,100.37344,57.222899999999996,101.43412000000001,57.222899999999996,101.43412000000001C57.222899999999996,101.43412000000001,50.49999,108.15690000000001,50.49999,108.15690000000001C50.49999,108.15690000000001,46.77015,104.42737,46.77015,104.42737C46.77015,104.42737,47.83075,103.36666,47.83075,103.36666C47.83075,103.36666,50.49996,106.0356,50.49996,106.0356C50.49996,106.0356,50.49996,106.0356,50.49996,106.0356Z" fill="#C2C2C2" fill-opacity="1"/></g></g><g><rect x="76" y="95" width="36" height="18" rx="0" fill="#C2C2C2" fill-opacity="1"/></g></g><g><g><g><path d="M136.5,113C135.671573,113,135,112.32849999999999,135,111.5C135,111.5,135,96.5,135,96.5C135,95.671573,135.671576,95,136.5,95C136.5,95,151.5,95,151.5,95C152.3285,95,153,95.671576,153,96.5C153,96.5,153,111.5,153,111.5C153,112.32849999999999,152.3285,113,151.5,113C151.5,113,136.5,113,136.5,113C136.5,113,136.5,113,136.5,113ZM136.5,111.5C136.5,111.5,136.5,96.5,136.5,96.5C136.5,96.5,151.5,96.5,151.5,96.5C151.5,96.5,151.5,111.5,151.5,111.5C151.5,111.5,136.5,111.5,136.5,111.5C136.5,111.5,136.5,111.5,136.5,111.5Z" fill-rule="evenodd" fill="#C2C2C2" fill-opacity="1"/></g></g><g><rect x="168" y="95" width="36" height="18" rx="0" fill="#C2C2C2" fill-opacity="1"/></g></g><g><g><g><path d="M227,111.5C227,112.32849999999999,227.671573,113,228.5,113C228.5,113,243.5,113,243.5,113C244.3285,113,245,112.32849999999999,245,111.5C245,111.5,245,96.5,245,96.5C245,95.671576,244.3285,95,243.5,95C243.5,95,228.5,95,228.5,95C227.671576,95,227,95.671573,227,96.5C227,96.5,227,111.5,227,111.5C227,111.5,227,111.5,227,111.5ZM234.49996,106.0356C234.49996,106.0356,240.1623,100.37344,240.1623,100.37344C240.1623,100.37344,241.2229,101.43412000000001,241.2229,101.43412000000001C241.2229,101.43412000000001,234.49999,108.15690000000001,234.49999,108.15690000000001C234.49999,108.15690000000001,230.77015,104.42737,230.77015,104.42737C230.77015,104.42737,231.83075,103.36666,231.83075,103.36666C231.83075,103.36666,234.49996,106.0356,234.49996,106.0356C234.49996,106.0356,234.49996,106.0356,234.49996,106.0356Z" fill="#C2C2C2" fill-opacity="1"/></g></g><g><rect x="260" y="95" width="36" height="18" rx="0" fill="#C2C2C2" fill-opacity="1"/></g></g><g><g><g><path d="M44.5,145C43.671573,145,43,144.3285,43,143.5C43,143.5,43,128.5,43,128.5C43,127.671573,43.671576,127,44.5,127C44.5,127,59.5,127,59.5,127C60.3285,127,61,127.671576,61,128.5C61,128.5,61,143.5,61,143.5C61,144.3285,60.3285,145,59.5,145C59.5,145,44.5,145,44.5,145C44.5,145,44.5,145,44.5,145ZM44.5,143.5C44.5,143.5,44.5,128.5,44.5,128.5C44.5,128.5,59.5,128.5,59.5,128.5C59.5,128.5,59.5,143.5,59.5,143.5C59.5,143.5,44.5,143.5,44.5,143.5C44.5,143.5,44.5,143.5,44.5,143.5Z" fill-rule="evenodd" fill="#C2C2C2" fill-opacity="1"/></g></g><g><rect x="76" y="127" width="36" height="18" rx="0" fill="#C2C2C2" fill-opacity="1"/></g></g><g><g><g><path d="M135,143.5C135,144.3285,135.671573,145,136.5,145C136.5,145,151.5,145,151.5,145C152.3285,145,153,144.3285,153,143.5C153,143.5,153,128.5,153,128.5C153,127.671576,152.3285,127,151.5,127C151.5,127,136.5,127,136.5,127C135.671576,127,135,127.671573,135,128.5C135,128.5,135,143.5,135,143.5C135,143.5,135,143.5,135,143.5ZM142.49996,138.0356C142.49996,138.0356,148.1623,132.37344,148.1623,132.37344C148.1623,132.37344,149.2229,133.43412,149.2229,133.43412C149.2229,133.43412,142.49999,140.1569,142.49999,140.1569C142.49999,140.1569,138.77015,136.42737,138.77015,136.42737C138.77015,136.42737,139.83075,135.36666,139.83075,135.36666C139.83075,135.36666,142.49996,138.0356,142.49996,138.0356C142.49996,138.0356,142.49996,138.0356,142.49996,138.0356Z" fill="#C2C2C2" fill-opacity="1"/></g></g><g><rect x="168" y="127" width="36" height="18" rx="0" fill="#C2C2C2" fill-opacity="1"/></g></g><g style="opacity:0;"><g><g><path d="M228.5,145C227.671573,145,227,144.3285,227,143.5C227,143.5,227,128.5,227,128.5C227,127.671573,227.671576,127,228.5,127C228.5,127,243.5,127,243.5,127C244.3285,127,245,127.671576,245,128.5C245,128.5,245,143.5,245,143.5C245,144.3285,244.3285,145,243.5,145C243.5,145,228.5,145,228.5,145C228.5,145,228.5,145,228.5,145ZM228.5,143.5C228.5,143.5,228.5,128.5,228.5,128.5C228.5,128.5,243.5,128.5,243.5,128.5C243.5,128.5,243.5,143.5,243.5,143.5C243.5,143.5,228.5,143.5,228.5,143.5C228.5,143.5,228.5,143.5,228.5,143.5Z" fill-rule="evenodd" fill="#C2C2C2" fill-opacity="1"/></g></g><g><rect x="260" y="127" width="36" height="18" rx="0" fill="#C2C2C2" fill-opacity="1"/></g></g></g></g></svg>