<svg xmlns="http://www.w3.org/2000/svg" viewBox="0 0 420 100"><defs><style>.cls-1{fill:#31373d;}.cls-2{fill:#02a4ff;}.cls-3{fill:#4231ff;}</style></defs><title>logo</title><g id="图层_5" data-name="图层 5"><path class="cls-1" d="M165.64,71.27h-.2a17.92,17.92,0,0,1-7,6.78,21.67,21.67,0,0,1-11.1,2.77A23.13,23.13,0,0,1,138.1,79a22.6,22.6,0,0,1-7.49-5.18,24.3,24.3,0,0,1-5-7.84,27.71,27.71,0,0,1,0-19.7,23.77,23.77,0,0,1,5-7.84,22.48,22.48,0,0,1,7.79-5.18,26.59,26.59,0,0,1,10.1-1.86,21,21,0,0,1,9.4,2.11,23.28,23.28,0,0,1,7.49,5.93h.2l-.12-20.2h7.84l.12,60.41h-7.84Zm0-15.18a20,20,0,0,0-1.16-6.89A15.86,15.86,0,0,0,155.84,40a18.11,18.11,0,0,0-13.77,0,15.79,15.79,0,0,0-5.28,3.72,16,16,0,0,0-3.37,5.52,21.22,21.22,0,0,0,0,13.78,16,16,0,0,0,3.37,5.52,15.79,15.79,0,0,0,5.28,3.72,18.11,18.11,0,0,0,13.77,0A15.86,15.86,0,0,0,164.48,63,20,20,0,0,0,165.64,56.09Z"/><path class="cls-1" d="M188.68,38.6V31.36h11.47q10.46,0,15.08,4.93t4.62,15v20.2c0,1.34.07,2.73.2,4.17s.3,2.77.5,4H213a16.71,16.71,0,0,1-.46-3.57c0-1.3-.05-2.46-.05-3.46h-.2a18.39,18.39,0,0,1-6.18,5.93,17.82,17.82,0,0,1-9.3,2.31,24.31,24.31,0,0,1-6.78-.91,16.91,16.91,0,0,1-5.53-2.66,13.12,13.12,0,0,1-3.77-4.37,12.49,12.49,0,0,1-1.41-6q0-5.83,3-9.15a18.35,18.35,0,0,1,7.49-4.93,36.9,36.9,0,0,1,9.65-2c3.45-.26,6.61-.4,9.5-.4h3V49q0-5.12-3.07-7.74c-2-1.74-4.91-2.61-8.59-2.61ZM204.17,57q-7.54,0-12,2.12A7.16,7.16,0,0,0,187.78,66q0,4.42,3,6.28a13.67,13.67,0,0,0,7.39,1.86,14.44,14.44,0,0,0,6-1.15A12.48,12.48,0,0,0,208.39,70,13.29,13.29,0,0,0,211,65.49,18.48,18.48,0,0,0,212,60V57Z"/><path class="cls-1" d="M268.69,38.6V31.36h11.47q10.45,0,15.08,4.93t4.62,15v20.2c0,1.34.07,2.73.2,4.17s.31,2.77.51,4H293a16.12,16.12,0,0,1-.45-3.57c0-1.3-.06-2.46-.06-3.46h-.2a18.39,18.39,0,0,1-6.18,5.93,17.82,17.82,0,0,1-9.3,2.31,24.31,24.31,0,0,1-6.78-.91,16.91,16.91,0,0,1-5.53-2.66,13.12,13.12,0,0,1-3.77-4.37,12.49,12.49,0,0,1-1.41-6q0-5.83,3-9.15a18.35,18.35,0,0,1,7.49-4.93,36.9,36.9,0,0,1,9.65-2c3.45-.26,6.61-.4,9.5-.4h3V49q0-5.12-3.06-7.74c-2-1.74-4.91-2.61-8.6-2.61ZM284.18,57q-7.53,0-12,2.12A7.15,7.15,0,0,0,267.8,66c0,2.95,1,5,3,6.28a13.67,13.67,0,0,0,7.39,1.86,14.44,14.44,0,0,0,6-1.15A12.48,12.48,0,0,0,288.4,70,13.29,13.29,0,0,0,291,65.49,18.48,18.48,0,0,0,292,60V57Z"/><path class="cls-1" d="M255.06,38H240.79V62.72c0,1.55,0,3,.1,4.28a8.86,8.86,0,0,0,.8,3.41,5.4,5.4,0,0,0,2.12,2.32,7.76,7.76,0,0,0,4,.85,16,16,0,0,0,3.51-.4A17.05,17.05,0,0,0,255.06,72v7.14a18.09,18.09,0,0,1-4.47,1.31,30,30,0,0,1-4.67.4,17,17,0,0,1-6.74-1.11,9.07,9.07,0,0,1-3.92-3.11,11.56,11.56,0,0,1-1.86-5A44.09,44.09,0,0,1,233,65V38h-8.68V31.36H233V19.2h7.84V31.36h14.27Z"/><path class="cls-1" d="M328.56,26.42a9,9,0,0,0-4.72,1,6.63,6.63,0,0,0-2.57,2.92,12.37,12.37,0,0,0-1,4.47c-.1,1.75-.15,5.62-.15,7.63v-.21H333v6.63H320.12V80.82h-7.84V48.91h-7.11V42.28h7.11v-1.5a56.76,56.76,0,0,1,.8-9.89,16,16,0,0,1,2.77-6.18A13,13,0,0,1,321,20.64,19.25,19.25,0,0,1,329,19.18h4v7.24Z"/><path class="cls-1" d="M336.53,56.09A25.64,25.64,0,0,1,338.44,46a23.73,23.73,0,0,1,5.23-7.79,23.27,23.27,0,0,1,7.94-5.08,28.83,28.83,0,0,1,20.11,0,23.36,23.36,0,0,1,7.94,5.08A23.71,23.71,0,0,1,384.88,46a25.47,25.47,0,0,1,1.91,10.05,25.43,25.43,0,0,1-1.91,10,23.6,23.6,0,0,1-5.22,7.79A23.36,23.36,0,0,1,371.72,79a28.83,28.83,0,0,1-20.11,0,23.27,23.27,0,0,1-7.94-5.08,23.63,23.63,0,0,1-5.23-7.79A25.61,25.61,0,0,1,336.53,56.09Zm8.45,0A20,20,0,0,0,346.13,63a15.92,15.92,0,0,0,8.65,9.24,18.11,18.11,0,0,0,13.77,0A15.86,15.86,0,0,0,377.19,63a21,21,0,0,0,0-13.78A15.86,15.86,0,0,0,368.55,40a18.11,18.11,0,0,0-13.77,0,15.92,15.92,0,0,0-8.65,9.24A20,20,0,0,0,345,56.09Z"/><path class="cls-1" d="M393.25,32.57h7c0,1.27,0,3.75.1,5s.1,2.58.1,3.92h.2A13.82,13.82,0,0,1,403,38.2a16.43,16.43,0,0,1,3.47-2.87,18.41,18.41,0,0,1,4.52-2,19,19,0,0,1,5.43-.75,12.43,12.43,0,0,1,1.61.1,7.29,7.29,0,0,1,1.61.4l-.5,7.94a14.71,14.71,0,0,0-4.23-.6q-7.23,0-10.5,4.67T401.09,57.9V80.82h-7.84Z"/><polygon class="cls-2" points="42.66 43.49 49.6 39.24 49.6 33.82 37.83 41.04 42.66 43.49"/><polygon class="cls-2" points="34.12 39.15 49.6 29.66 49.6 24.25 29.29 36.7 34.12 39.15"/><polygon class="cls-2" points="25.57 34.81 49.6 20.09 49.6 14.67 20.74 32.35 25.57 34.81"/><polygon class="cls-2" points="17.03 30.47 49.6 10.51 49.6 5.09 12.2 28.01 17.03 30.47"/><path class="cls-2" d="M12.44,23.71,45.52,3.43A43.21,43.21,0,0,0,12.44,23.71Z"/><path class="cls-3" d="M96.38,51.81a5.87,5.87,0,0,0-5-.8c-.72.22-2.3.94-3.07,1.28-3.44,1.49-8.76,4-15.87.83-6.78-3-11.86-.56-16.7,2.11-3,1.65-6.06,3.6-9.45,3.87-.5,0-1.16.09-1.64.09-5.59,0-10.14-2.56-15.48-5.48-2.28-1.24-4.68-2.55-7.29-3.71-5.62-2.51-20.08-9.26-21.45.57a49.31,49.31,0,0,0,98,3.7A6.15,6.15,0,0,0,96.38,51.81Z"/><path class="cls-2" d="M49.6,3.43V47l-39-19.8A43.62,43.62,0,0,0,6.76,38c5,0,11.69,3.08,15.1,4.6,2.61,1.16,5,2.47,7.29,3.72C34.49,49.25,39,51.8,44.63,51.8c.48,0,1.14,0,1.64-.09,3.39-.27,6.47-2.22,9.45-3.86,4.84-2.68,9.92-5.11,16.7-2.12,7.11,3.14,12.43.66,15.87-.83.77-.33,2.35-1.06,3.07-1.28a5.93,5.93,0,0,1,1.89-.23A43.83,43.83,0,0,0,49.6,3.43Z"/></g></svg>