<svg xmlns="http://www.w3.org/2000/svg" xmlns:xlink="http://www.w3.org/1999/xlink" fill="none" version="1.1" width="344" height="242" viewBox="0 0 344 242"><defs><clipPath id="master_svg0_234_02983"><rect x="0" y="0" width="344" height="242" rx="0"/></clipPath></defs><g><rect x="0" y="0" width="344" height="242" rx="0" fill="#F2F2F2" fill-opacity="1"/><g clip-path="url(#master_svg0_234_02983)"><rect x="0" y="0" width="344" height="242" rx="0" fill="#F2F2F2" fill-opacity="1"/><g transform="matrix(-1,-5.2146120310681e-8,5.2146120310681e-8,-1,511.99998951862983,402.0000133494068)"><rect x="256" y="201" width="30" height="57" rx="0" fill="#C2C2C2" fill-opacity="1"/></g><g transform="matrix(-1,-5.2146120310681e-8,5.2146120310681e-8,-1,511.9999924909587,288.0000133494068)" style="opacity:0.699999988079071;"><rect x="256" y="144" width="30" height="57" rx="0" fill="#C2C2C2" fill-opacity="1"/></g><g transform="matrix(-1,-5.2146120310681e-8,5.2146120310681e-8,-1,331.99998951862983,402.000008656256)"><rect x="166" y="201" width="30" height="74" rx="0" fill="#C2C2C2" fill-opacity="1"/></g><g transform="matrix(-1,-5.2146120310681e-8,5.2146120310681e-8,-1,425.99998951862983,402.0000111071236)"><rect x="213" y="201" width="30" height="47" rx="0" fill="#C2C2C2" fill-opacity="1"/></g><g transform="matrix(-1,-5.2146120310681e-8,5.2146120310681e-8,-1,426.00194509449113,308.00025524779954)" style="opacity:0.699999988079071;"><rect x="213.0009765625" y="154.0001220703125" width="30" height="47" rx="0" fill="#C2C2C2" fill-opacity="1"/></g><g transform="matrix(-1,-5.2146120310681e-8,5.2146120310681e-8,-1,237.99998951862983,402.00000620538833)"><rect x="119" y="201" width="30" height="35" rx="0" fill="#C2C2C2" fill-opacity="1"/></g><g transform="matrix(-1,-5.2146120310681e-8,5.2146120310681e-8,-1,237.99999134374403,332.00000620538833)" style="opacity:0.699999988079071;"><rect x="119" y="166" width="30" height="56" rx="0" fill="#C2C2C2" fill-opacity="1"/></g><g transform="matrix(-1,-5.2146120310681e-8,5.2146120310681e-8,-1,511.9999954632875,174.0000133494068)" style="opacity:0.30000001192092896;"><rect x="256" y="87" width="30" height="46" rx="0" fill="#C2C2C2" fill-opacity="1"/></g><g transform="matrix(-1,-5.2146120310681e-8,5.2146120310681e-8,-1,331.99999603689486,152.00000865625597)" style="opacity:0.30000001192092896;"><rect x="166" y="76" width="30" height="35" rx="0" fill="#C2C2C2" fill-opacity="1"/></g><g transform="matrix(-1,-5.2146120310681e-8,5.2146120310681e-8,-1,331.9999933774427,254.00000865625597)" style="opacity:0.699999988079071;"><rect x="166" y="127" width="30" height="51" rx="0" fill="#C2C2C2" fill-opacity="1"/></g><g transform="matrix(-1,-5.2146120310681e-8,5.2146120310681e-8,-1,426.0019475453588,214.00025524779954)" style="opacity:0.30000001192092896;"><rect x="213.0009765625" y="107.0001220703125" width="30" height="66" rx="0" fill="#C2C2C2" fill-opacity="1"/></g><g transform="matrix(-1,-5.2146120310681e-8,5.2146120310681e-8,-1,237.99999426392677,220.00000620538833)" style="opacity:0.30000001192092896;"><rect x="119" y="110" width="30" height="69" rx="0" fill="#C2C2C2" fill-opacity="1"/></g></g></g></svg>