<svg xmlns="http://www.w3.org/2000/svg" xmlns:xlink="http://www.w3.org/1999/xlink" fill="none" version="1.1" width="344" height="242" viewBox="0 0 344 242"><defs><clipPath id="master_svg0_234_03154"><rect x="0" y="0" width="344" height="242" rx="0"/></clipPath></defs><g clip-path="url(#master_svg0_234_03154)"><rect x="0" y="0" width="344" height="242" rx="0" fill="#F2F2F2" fill-opacity="1"/><g><path d="M240.9,61.2222L104.1,61.2222L104.1,181.778L183.5466,101.7461C186.8854,98.3845,192.298,98.3845,195.636,101.7461L240.899,141.8947L240.9,61.2222ZM87,52.55083C87.032557,47.84534,90.80954,44.0375308,95.4816,44L249.518,44C254.204,44,258,47.83194,258,52.55083L258,190.449C257.967,195.155,254.19,198.962,249.518,199L95.4816,199C90.79596,198.995,86.99999847114,195.168,87,190.449L87,52.55083ZM138.3,112.8889C128.8527,112.8935,121.1916,105.1815,121.1916,95.66669999999999C121.1916,86.15180000000001,128.8527,78.43979999999999,138.3,78.4445C147.7441,78.4445,155.4,86.1551,155.4,95.66669999999999C155.4,105.17830000000001,147.7441,112.8889,138.3,112.8889Z" fill="#FFFFFF" fill-opacity="1"/></g><g><path d="M244,98Q268,80,268,60.5C268,48.0736,257.2549,38,244,38C230.7451,38,220,48.0736,220,60.5Q220,80,244,98Z" fill="#C2C2C2" fill-opacity="1"/></g><g><path d="M252,62Q252,62.19639,251.9904,62.39254Q251.9807,62.58869,251.9615,62.78414Q251.9422,62.97958,251.9134,63.17384Q251.8846,63.36811,251.84629999999999,63.56072Q251.808,63.75334,251.7602,63.94384Q251.7125,64.1343,251.6555,64.3223Q251.5985,64.5102,251.5324,64.6951Q251.46620000000001,64.88,251.391,65.0615Q251.3159,65.2429,251.2319,65.4204Q251.1479,65.598,251.0554,65.7712Q250.9628,65.9444,250.8618,66.1128Q250.7609,66.2813,250.6518,66.4446Q250.5426,66.6079,250.4257,66.7656Q250.3087,66.9233,250.1841,67.0751Q250.0595,67.227,249.9276,67.3725Q249.7957,67.518,249.6569,67.65690000000001Q249.518,67.7957,249.3725,67.9276Q249.227,68.0595,249.0751,68.1841Q248.9233,68.3087,248.7656,68.4257Q248.6079,68.5426,248.4446,68.6518Q248.2813,68.76089999999999,248.1128,68.8618Q247.9444,68.9628,247.7712,69.0554Q247.598,69.14789999999999,247.4204,69.2319Q247.2429,69.3159,247.0615,69.391Q246.88,69.4662,246.6951,69.5324Q246.5102,69.5985,246.3223,69.6555Q246.1343,69.7125,245.94384,69.7602Q245.75334,69.80799999999999,245.56072,69.8463Q245.36811,69.8846,245.17384,69.9134Q244.97958,69.9422,244.78414,69.9615Q244.58868999999999,69.9807,244.39254,69.9904Q244.19639,70,244,70Q243.80361,70,243.60746,69.9904Q243.41131000000001,69.9807,243.21586,69.9615Q243.02042,69.9422,242.82616,69.9134Q242.63189,69.8846,242.43928,69.8463Q242.24666,69.80799999999999,242.05616,69.7602Q241.86565,69.7125,241.67772,69.6555Q241.48979,69.5985,241.30488,69.5324Q241.11997,69.4662,240.93853000000001,69.391Q240.75709,69.3159,240.57956,69.2319Q240.40203,69.14789999999999,240.22883,69.0554Q240.05563,68.9628,239.88718,68.8618Q239.71873,68.76089999999999,239.55544,68.6518Q239.39215,68.5426,239.23441,68.4257Q239.07666,68.3087,238.92485,68.1841Q238.77304,68.0595,238.62753,67.9276Q238.48201,67.7957,238.34315,67.65690000000001Q238.20428,67.518,238.07239,67.3725Q237.9405,67.227,237.81592,67.0751Q237.69133,66.9233,237.57434,66.7656Q237.45735,66.6079,237.34824,66.4446Q237.23914,66.2813,237.13817,66.1128Q237.03721,65.9444,236.94463,65.7712Q236.852053,65.598,236.768086,65.4204Q236.684118,65.2429,236.608964,65.0615Q236.533809,64.88,236.467647,64.6951Q236.401486,64.5102,236.344477,64.3223Q236.287469,64.1343,236.23975,63.94384Q236.192031,63.75334,236.153718,63.56072Q236.115404,63.36811,236.0865879,63.17384Q236.0577717,62.97958,236.0385222,62.78414Q236.0192727,62.58869,236.00963635,62.39254Q236,62.19639,236,62Q236,61.80361,236.00963635,61.60746Q236.0192727,61.41131,236.0385222,61.21586Q236.0577717,61.02042,236.0865879,60.82616Q236.115404,60.63189,236.153718,60.43928Q236.192031,60.24666,236.23975,60.05616Q236.287469,59.86565,236.344477,59.67772Q236.401486,59.48979,236.467647,59.30488Q236.533809,59.11997,236.608964,58.93853Q236.684118,58.75709,236.768086,58.57956Q236.852053,58.402029999999996,236.94463,58.22883Q237.03721,58.05563,237.13817,57.88718Q237.23914,57.71873,237.34824,57.55544Q237.45735,57.39215,237.57434,57.23441Q237.69133,57.07666,237.81592,56.92485Q237.9405,56.77304,238.07239,56.62753Q238.20428,56.48201,238.34315,56.34315Q238.48201,56.20428,238.62753,56.07239Q238.77304,55.9405,238.92485,55.81592Q239.07666,55.69133,239.23441,55.57434Q239.39215,55.45735,239.55544,55.34824Q239.71873,55.23914,239.88718,55.13817Q240.05563,55.03721,240.22883,54.94463Q240.40203,54.852053,240.57956,54.768086Q240.75709,54.684118,240.93853000000001,54.608964Q241.11997,54.533809,241.30488,54.467647Q241.48979,54.401486,241.67772,54.344477Q241.86565,54.287469,242.05616,54.23975Q242.24666,54.192031,242.43928,54.153718Q242.63189,54.115404,242.82616,54.0865879Q243.02042,54.0577717,243.21586,54.0385222Q243.41131000000001,54.0192727,243.60746,54.00963635Q243.80361,54,244,54Q244.19639,54,244.39254,54.00963635Q244.58868999999999,54.0192727,244.78414,54.0385222Q244.97958,54.0577717,245.17384,54.0865879Q245.36811,54.115404,245.56072,54.153718Q245.75334,54.192031,245.94384,54.23975Q246.1343,54.287469,246.3223,54.344477Q246.5102,54.401486,246.6951,54.467647Q246.88,54.533809,247.0615,54.608964Q247.2429,54.684118,247.4204,54.768086Q247.598,54.852053,247.7712,54.94463Q247.9444,55.03721,248.1128,55.13817Q248.2813,55.23914,248.4446,55.34824Q248.6079,55.45735,248.7656,55.57434Q248.9233,55.69133,249.0751,55.81592Q249.227,55.9405,249.3725,56.07239Q249.518,56.20428,249.6569,56.34315Q249.7957,56.48201,249.9276,56.62753Q250.0595,56.77304,250.1841,56.92485Q250.3087,57.07666,250.4257,57.23441Q250.5426,57.39215,250.6518,57.55544Q250.7609,57.71873,250.8618,57.88718Q250.9628,58.05563,251.0554,58.22883Q251.1479,58.402029999999996,251.2319,58.57956Q251.3159,58.75709,251.391,58.93853Q251.46620000000001,59.11997,251.5324,59.30488Q251.5985,59.48979,251.6555,59.67772Q251.7125,59.86565,251.7602,60.05616Q251.808,60.24666,251.84629999999999,60.43928Q251.8846,60.63189,251.9134,60.82616Q251.9422,61.02042,251.9615,61.21586Q251.9807,61.41131,251.9904,61.60746Q252,61.80361,252,62Z" fill="#F2F2F2" fill-opacity="1"/></g><g><path d="M203,194Q227,176,227,156.5C227,144.0736,216.2549,134,203,134C189.7451,134,179,144.0736,179,156.5Q179,176,203,194Z" fill="#D5D5D5" fill-opacity="1"/></g><g><path d="M211,158Q211,158.19639,210.9904,158.39254Q210.9807,158.58868999999999,210.9615,158.78414Q210.9422,158.97958,210.9134,159.17384Q210.8846,159.36811,210.84629999999999,159.56072Q210.808,159.75334,210.7602,159.94384Q210.7125,160.1343,210.6555,160.3223Q210.5985,160.5102,210.5324,160.6951Q210.46620000000001,160.88,210.391,161.0615Q210.3159,161.2429,210.2319,161.4204Q210.1479,161.598,210.0554,161.7712Q209.9628,161.9444,209.8618,162.1128Q209.7609,162.2813,209.6518,162.4446Q209.5426,162.6079,209.4257,162.7656Q209.3087,162.9233,209.1841,163.0751Q209.0595,163.227,208.9276,163.3725Q208.7957,163.518,208.6569,163.6569Q208.518,163.7957,208.3725,163.9276Q208.227,164.0595,208.0751,164.1841Q207.9233,164.3087,207.7656,164.4257Q207.6079,164.5426,207.4446,164.6518Q207.2813,164.7609,207.1128,164.8618Q206.9444,164.9628,206.7712,165.0554Q206.598,165.1479,206.4204,165.2319Q206.2429,165.3159,206.0615,165.391Q205.88,165.46620000000001,205.6951,165.5324Q205.5102,165.5985,205.3223,165.6555Q205.1343,165.7125,204.94384,165.7602Q204.75334,165.808,204.56072,165.84629999999999Q204.36811,165.8846,204.17384,165.9134Q203.97958,165.9422,203.78414,165.9615Q203.58868999999999,165.9807,203.39254,165.9904Q203.19639,166,203,166Q202.80361,166,202.60746,165.9904Q202.41131000000001,165.9807,202.21586,165.9615Q202.02042,165.9422,201.82616,165.9134Q201.63189,165.8846,201.43928,165.84629999999999Q201.24666,165.808,201.05616,165.7602Q200.86565,165.7125,200.67772,165.6555Q200.48979,165.5985,200.30488,165.5324Q200.11997,165.46620000000001,199.93853000000001,165.391Q199.75709,165.3159,199.57956,165.2319Q199.40203,165.1479,199.22883,165.0554Q199.05563,164.9628,198.88718,164.8618Q198.71873,164.7609,198.55544,164.6518Q198.39215,164.5426,198.23441,164.4257Q198.07666,164.3087,197.92485,164.1841Q197.77304,164.0595,197.62753,163.9276Q197.48201,163.7957,197.34315,163.6569Q197.20428,163.518,197.07239,163.3725Q196.9405,163.227,196.81592,163.0751Q196.69133,162.9233,196.57434,162.7656Q196.45735,162.6079,196.34824,162.4446Q196.23914,162.2813,196.13817,162.1128Q196.03721,161.9444,195.94463,161.7712Q195.852053,161.598,195.768086,161.4204Q195.684118,161.2429,195.608964,161.0615Q195.533809,160.88,195.467647,160.6951Q195.401486,160.5102,195.344477,160.3223Q195.287469,160.1343,195.23975,159.94384Q195.192031,159.75334,195.153718,159.56072Q195.115404,159.36811,195.0865879,159.17384Q195.0577717,158.97958,195.0385222,158.78414Q195.0192727,158.58868999999999,195.00963635,158.39254Q195,158.19639,195,158Q195,157.80361,195.00963635,157.60746Q195.0192727,157.41131000000001,195.0385222,157.21586Q195.0577717,157.02042,195.0865879,156.82616Q195.115404,156.63189,195.153718,156.43928Q195.192031,156.24666,195.23975,156.05616Q195.287469,155.86565,195.344477,155.67772Q195.401486,155.48979,195.467647,155.30488Q195.533809,155.11997,195.608964,154.93853000000001Q195.684118,154.75709,195.768086,154.57956Q195.852053,154.40203,195.94463,154.22883Q196.03721,154.05563,196.13817,153.88718Q196.23914,153.71873,196.34824,153.55544Q196.45735,153.39215,196.57434,153.23441Q196.69133,153.07666,196.81592,152.92485Q196.9405,152.77304,197.07239,152.62753Q197.20428,152.48201,197.34315,152.34315Q197.48201,152.20428,197.62753,152.07239Q197.77304,151.9405,197.92485,151.81592Q198.07666,151.69133,198.23441,151.57434Q198.39215,151.45735,198.55544,151.34824Q198.71873,151.23914,198.88718,151.13817Q199.05563,151.03721,199.22883,150.94463Q199.40203,150.852053,199.57956,150.768086Q199.75709,150.684118,199.93853000000001,150.608964Q200.11997,150.533809,200.30488,150.467647Q200.48979,150.401486,200.67772,150.344477Q200.86565,150.287469,201.05616,150.23975Q201.24666,150.192031,201.43928,150.153718Q201.63189,150.115404,201.82616,150.0865879Q202.02042,150.0577717,202.21586,150.0385222Q202.41131000000001,150.0192727,202.60746,150.00963635Q202.80361,150,203,150Q203.19639,150,203.39254,150.00963635Q203.58868999999999,150.0192727,203.78414,150.0385222Q203.97958,150.0577717,204.17384,150.0865879Q204.36811,150.115404,204.56072,150.153718Q204.75334,150.192031,204.94384,150.23975Q205.1343,150.287469,205.3223,150.344477Q205.5102,150.401486,205.6951,150.467647Q205.88,150.533809,206.0615,150.608964Q206.2429,150.684118,206.4204,150.768086Q206.598,150.852053,206.7712,150.94463Q206.9444,151.03721,207.1128,151.13817Q207.2813,151.23914,207.4446,151.34824Q207.6079,151.45735,207.7656,151.57434Q207.9233,151.69133,208.0751,151.81592Q208.227,151.9405,208.3725,152.07239Q208.518,152.20428,208.6569,152.34315Q208.7957,152.48201,208.9276,152.62753Q209.0595,152.77304,209.1841,152.92485Q209.3087,153.07666,209.4257,153.23441Q209.5426,153.39215,209.6518,153.55544Q209.7609,153.71873,209.8618,153.88718Q209.9628,154.05563,210.0554,154.22883Q210.1479,154.40203,210.2319,154.57956Q210.3159,154.75709,210.391,154.93853000000001Q210.46620000000001,155.11997,210.5324,155.30488Q210.5985,155.48979,210.6555,155.67772Q210.7125,155.86565,210.7602,156.05616Q210.808,156.24666,210.84629999999999,156.43928Q210.8846,156.63189,210.9134,156.82616Q210.9422,157.02042,210.9615,157.21586Q210.9807,157.41131000000001,210.9904,157.60746Q211,157.80361,211,158Z" fill="#F2F2F2" fill-opacity="1"/></g><g><path d="M97,163Q121,145,121,125.5C121,113.0736,110.25489999999999,103,97,103C83.74510000000001,103,73,113.0736,73,125.5Q73,145,97,163Z" fill="#E4E4E4" fill-opacity="1"/></g><g><path d="M105,127Q105,127.19639,104.9904,127.39254Q104.9807,127.58869,104.9615,127.78414000000001Q104.9422,127.97958,104.9134,128.17384Q104.8846,128.36811,104.8463,128.56072Q104.80799999999999,128.75334,104.7602,128.94384Q104.7125,129.1343,104.6555,129.3223Q104.5985,129.5102,104.5324,129.6951Q104.4662,129.88,104.391,130.0615Q104.3159,130.2429,104.2319,130.4204Q104.14789999999999,130.598,104.0554,130.7712Q103.9628,130.9444,103.8618,131.1128Q103.76089999999999,131.2813,103.6518,131.4446Q103.5426,131.6079,103.4257,131.7656Q103.3087,131.9233,103.1841,132.0751Q103.0595,132.227,102.9276,132.3725Q102.7957,132.518,102.65690000000001,132.6569Q102.518,132.7957,102.3725,132.9276Q102.227,133.0595,102.0751,133.1841Q101.9233,133.3087,101.7656,133.4257Q101.6079,133.5426,101.4446,133.6518Q101.2813,133.7609,101.1128,133.8618Q100.9444,133.9628,100.7712,134.0554Q100.598,134.1479,100.4204,134.2319Q100.2429,134.3159,100.0615,134.391Q99.88,134.46620000000001,99.6951,134.5324Q99.5102,134.5985,99.3223,134.6555Q99.1343,134.7125,98.94384,134.7602Q98.75334,134.808,98.56072,134.84629999999999Q98.36811,134.8846,98.17384,134.9134Q97.97958,134.9422,97.78414000000001,134.9615Q97.58869,134.9807,97.39254,134.9904Q97.19639,135,97,135Q96.80361,135,96.60746,134.9904Q96.41131,134.9807,96.21586,134.9615Q96.02042,134.9422,95.82616,134.9134Q95.63189,134.8846,95.43928,134.84629999999999Q95.24666,134.808,95.05616,134.7602Q94.86565,134.7125,94.67772,134.6555Q94.48979,134.5985,94.30488,134.5324Q94.11997,134.46620000000001,93.93853,134.391Q93.75709,134.3159,93.57956,134.2319Q93.40203,134.1479,93.22883,134.0554Q93.05563,133.9628,92.88718,133.8618Q92.71873,133.7609,92.55544,133.6518Q92.39215,133.5426,92.23441,133.4257Q92.07666,133.3087,91.92485,133.1841Q91.77304,133.0595,91.62753000000001,132.9276Q91.48201,132.7957,91.34315,132.6569Q91.20428,132.518,91.07239,132.3725Q90.9405,132.227,90.81592,132.0751Q90.69133,131.9233,90.57434,131.7656Q90.45735,131.6079,90.34824,131.4446Q90.23914,131.2813,90.13817,131.1128Q90.03721,130.9444,89.94463,130.7712Q89.852053,130.598,89.768086,130.4204Q89.684118,130.2429,89.608964,130.0615Q89.533809,129.88,89.467647,129.6951Q89.401486,129.5102,89.344477,129.3223Q89.287469,129.1343,89.23975,128.94384Q89.192031,128.75334,89.153718,128.56072Q89.115404,128.36811,89.0865879,128.17384Q89.0577717,127.97958,89.0385222,127.78414000000001Q89.0192727,127.58869,89.00963635,127.39254Q89,127.19639,89,127Q89,126.80361,89.00963635,126.60746Q89.0192727,126.41131,89.0385222,126.21586Q89.0577717,126.02042,89.0865879,125.82616Q89.115404,125.63189,89.153718,125.43928Q89.192031,125.24666,89.23975,125.05616Q89.287469,124.86565,89.344477,124.67772Q89.401486,124.48979,89.467647,124.30488Q89.533809,124.11997,89.608964,123.93853Q89.684118,123.75709,89.768086,123.57956Q89.852053,123.40203,89.94463,123.22883Q90.03721,123.05563,90.13817,122.88718Q90.23914,122.71873,90.34824,122.55544Q90.45735,122.39215,90.57434,122.23441Q90.69133,122.07666,90.81592,121.92485Q90.9405,121.77304,91.07239,121.62753000000001Q91.20428,121.48201,91.34315,121.34315Q91.48201,121.20428,91.62753000000001,121.07239Q91.77304,120.9405,91.92485,120.81592Q92.07666,120.69133,92.23441,120.57434Q92.39215,120.45735,92.55544,120.34824Q92.71873,120.23914,92.88718,120.13817Q93.05563,120.03721,93.22883,119.94463Q93.40203,119.852053,93.57956,119.768086Q93.75709,119.684118,93.93853,119.608964Q94.11997,119.533809,94.30488,119.467647Q94.48979,119.401486,94.67772,119.344477Q94.86565,119.287469,95.05616,119.23975Q95.24666,119.192031,95.43928,119.153718Q95.63189,119.115404,95.82616,119.0865879Q96.02042,119.0577717,96.21586,119.0385222Q96.41131,119.0192727,96.60746,119.00963635Q96.80361,119,97,119Q97.19639,119,97.39254,119.00963635Q97.58869,119.0192727,97.78414000000001,119.0385222Q97.97958,119.0577717,98.17384,119.0865879Q98.36811,119.115404,98.56072,119.153718Q98.75334,119.192031,98.94384,119.23975Q99.1343,119.287469,99.3223,119.344477Q99.5102,119.401486,99.6951,119.467647Q99.88,119.533809,100.0615,119.608964Q100.2429,119.684118,100.4204,119.768086Q100.598,119.852053,100.7712,119.94463Q100.9444,120.03721,101.1128,120.13817Q101.2813,120.23914,101.4446,120.34824Q101.6079,120.45735,101.7656,120.57434Q101.9233,120.69133,102.0751,120.81592Q102.227,120.9405,102.3725,121.07239Q102.518,121.20428,102.65690000000001,121.34315Q102.7957,121.48201,102.9276,121.62753000000001Q103.0595,121.77304,103.1841,121.92485Q103.3087,122.07666,103.4257,122.23441Q103.5426,122.39215,103.6518,122.55544Q103.76089999999999,122.71873,103.8618,122.88718Q103.9628,123.05563,104.0554,123.22883Q104.14789999999999,123.40203,104.2319,123.57956Q104.3159,123.75709,104.391,123.93853Q104.4662,124.11997,104.5324,124.30488Q104.5985,124.48979,104.6555,124.67772Q104.7125,124.86565,104.7602,125.05616Q104.80799999999999,125.24666,104.8463,125.43928Q104.8846,125.63189,104.9134,125.82616Q104.9422,126.02042,104.9615,126.21586Q104.9807,126.41131,104.9904,126.60746Q105,126.80361,105,127Z" fill="#F2F2F2" fill-opacity="1"/></g></g></svg>