<svg xmlns="http://www.w3.org/2000/svg" xmlns:xlink="http://www.w3.org/1999/xlink" fill="none" version="1.1" width="344" height="242" viewBox="0 0 344 242"><g><rect x="0" y="0" width="344" height="242" rx="0" fill="#F2F2F2" fill-opacity="1"/><g><rect x="50" y="99" width="244" height="44" rx="0" fill="#FFFFFF" fill-opacity="1"/></g><g><path d="M78.40364921875,122.88081025390625Q78.97364921875,121.43352025390625,78.97364921875,119.87718025390625Q78.97364921875,118.32084025390625,78.40364921875,116.87358025390625Q77.78454921875,115.30137025390626,76.59474921875,114.10527025390626Q75.40394921875,112.90825025390625,73.83774921875,112.28490725390625Q72.39447921875,111.71051025390625,70.84202921875,111.71051025390625Q69.28956921875,111.71051025390625,67.84630921875,112.28490725390625Q66.28005921875,112.90825025390625,65.08933921875,114.10527025390626Q63.89953921875,115.30137025390626,63.28038821875,116.87359025390624Q62.71044921875,118.32084025390625,62.71044921875,119.87718025390625Q62.71044921875,121.43352025390625,63.28038821875,122.88081025390625Q63.89953921875,124.45301025390626,65.08933921875,125.64911025390624Q66.28005921875,126.84611025390625,67.84630921875,127.46941025390625Q69.28956921875,128.04381025390626,70.84202921875,128.04381025390626Q72.39447921875,128.04381025390626,73.83774921875,127.46941025390625Q74.89554921875,127.04841025390625,75.78204921875,126.36581025390625L79.79924921874999,129.89301025390625L79.79954921875,129.89331025390624Q80.00484921875,130.07351025390625,80.26044921875,130.16981025390623Q80.51604921875,130.26611025390625,80.78924921875,130.26611025390625L80.79634921875,130.26611025390625Q80.84144921875,130.26591025390624,80.88644921875,130.26291025390626Q81.03384921874999,130.25341025390625,81.17664921875,130.21521025390626Q81.31934921875,130.17711025390625,81.45184921875,130.11181025390624Q81.58444921875,130.04651025390626,81.70164921874999,129.95671025390624Q81.81894921874999,129.86681025390624,81.91644921875,129.75581025390625Q82.09664921875,129.55051025390625,82.19294921875,129.29491025390624Q82.28924921875,129.03931025390625,82.28924921875,128.76611025390625Q82.28924921875,128.71741025390625,82.28614921875,128.66891025390626Q82.27654921875,128.52141025390625,82.23834921875,128.37871025390626Q82.20024921875,128.23601025390624,82.13494921875,128.10351025390625Q82.06964921875,127.97091025390625,81.97984921875,127.85371025390626Q81.88994921875,127.73641025390626,81.77894921875,127.63891025390625L77.78484921875,124.13191025390626Q78.14434921875,123.53941025390625,78.40364921875,122.88081025390625ZM74.46784921875,116.22099025390625Q75.97364921875,117.73476025390624,75.97364921875,119.87718025390625Q75.97364921875,122.01961025390625,74.46784921875,123.53341025390625Q72.96524921875,125.04381025390624,70.84202921875,125.04381025390624Q68.71877921875,125.04381025390624,67.21624921875,123.53341025390625Q65.71044921875,122.01961025390625,65.71044921875,119.87718025390625Q65.71044921875,117.73476025390624,67.21624921875,116.22099025390625Q68.71877921875,114.71051025390625,70.84202921875,114.71051025390625Q72.96524921875,114.71051025390625,74.46784921875,116.22099025390625Z" fill-rule="evenodd" fill="#C2C2C2" fill-opacity="1"/></g></g></svg>