<svg xmlns="http://www.w3.org/2000/svg" xmlns:xlink="http://www.w3.org/1999/xlink" fill="none" version="1.1" width="344" height="242" viewBox="0 0 344 242"><defs><clipPath id="master_svg0_234_02993"><rect x="0" y="0" width="344" height="242" rx="0"/></clipPath></defs><g><rect x="0" y="0" width="344" height="242" rx="0" fill="#F2F2F2" fill-opacity="1"/><g clip-path="url(#master_svg0_234_02993)"><rect x="0" y="0" width="344" height="242" rx="0" fill="#F2F2F2" fill-opacity="1"/><g transform="matrix(0,-1,1,0,-131,277)"><rect x="73" y="204" width="30" height="71" rx="0" fill="#C2C2C2" fill-opacity="1"/></g><g transform="matrix(0,-1,1,0,-60,348)" style="opacity:0.699999988079071;"><rect x="144" y="204" width="30" height="71" rx="0" fill="#C2C2C2" fill-opacity="1"/></g><g transform="matrix(0,-1,1,0,-41,187)"><rect x="73" y="114" width="30" height="92" rx="0" fill="#C2C2C2" fill-opacity="1"/></g><g transform="matrix(0,-1,1,0,-88,234)"><rect x="73" y="161" width="30" height="59" rx="0" fill="#C2C2C2" fill-opacity="1"/></g><g transform="matrix(0,-1,1,0,-29,293)" style="opacity:0.699999988079071;"><rect x="132" y="161" width="30" height="59" rx="0" fill="#C2C2C2" fill-opacity="1"/></g><g transform="matrix(0,-1,1,0,6,140)"><rect x="73" y="67" width="30" height="44" rx="0" fill="#C2C2C2" fill-opacity="1"/></g><g transform="matrix(0,-1,1,0,50,184)" style="opacity:0.699999988079071;"><rect x="117" y="67" width="30" height="70" rx="0" fill="#C2C2C2" fill-opacity="1"/></g><g transform="matrix(0,-1,1,0,11,419)" style="opacity:0.30000001192092896;"><rect x="215" y="204" width="30" height="58" rx="0" fill="#C2C2C2" fill-opacity="1"/></g><g transform="matrix(0,-1,1,0,115,343)" style="opacity:0.30000001192092896;"><rect x="229" y="114" width="30" height="43" rx="0" fill="#C2C2C2" fill-opacity="1"/></g><g transform="matrix(0,-1,1,0,51,279)" style="opacity:0.699999988079071;"><rect x="165" y="114" width="30" height="64" rx="0" fill="#C2C2C2" fill-opacity="1"/></g><g transform="matrix(0,-1,1,0,30,352)" style="opacity:0.30000001192092896;"><rect x="191" y="161" width="30" height="81" rx="0" fill="#C2C2C2" fill-opacity="1"/></g><g transform="matrix(0,-1,1,0,120,254)" style="opacity:0.30000001192092896;"><rect x="187" y="67" width="30" height="85" rx="0" fill="#C2C2C2" fill-opacity="1"/></g></g></g></svg>