<svg id="透视表" xmlns="http://www.w3.org/2000/svg" viewBox="0 0 124 93"><defs><style>.cls-1{fill:#f2f2f2;}.cls-2{fill:#fff;}.cls-3{fill:#c2c2c2;}.cls-4{fill:#383838;opacity:0.2;}</style></defs><title>datafor-icons</title><rect class="cls-1" width="124" height="93"/><rect class="cls-2" x="46.5" y="49.56" width="31" height="15" rx="1.5"/><path class="cls-3" d="M76,50.06a1,1,0,0,1,1,1v12a1,1,0,0,1-1,1H48a1,1,0,0,1-1-1v-12a1,1,0,0,1,1-1H76m0-1H48a2,2,0,0,0-2,2v12a2,2,0,0,0,2,2H76a2,2,0,0,0,2-2v-12a2,2,0,0,0-2-2Z"/><rect class="cls-2" x="82.32" y="49.56" width="31" height="15" rx="1.5"/><path class="cls-3" d="M111.82,50.06a1,1,0,0,1,1,1v12a1,1,0,0,1-1,1h-28a1,1,0,0,1-1-1v-12a1,1,0,0,1,1-1h28m0-1h-28a2,2,0,0,0-2,2v12a2,2,0,0,0,2,2h28a2,2,0,0,0,2-2v-12a2,2,0,0,0-2-2Z"/><rect class="cls-2" x="10.68" y="24.88" width="31" height="15" rx="1.5"/><path class="cls-3" d="M40.18,25.38a1,1,0,0,1,1,1v12a1,1,0,0,1-1,1h-28a1,1,0,0,1-1-1v-12a1,1,0,0,1,1-1h28m0-1h-28a2,2,0,0,0-2,2v12a2,2,0,0,0,2,2h28a2,2,0,0,0,2-2v-12a2,2,0,0,0-2-2Z"/><rect class="cls-2" x="82.32" y="24.88" width="31" height="15" rx="1.5"/><path class="cls-3" d="M111.82,25.38a1,1,0,0,1,1,1v12a1,1,0,0,1-1,1h-28a1,1,0,0,1-1-1v-12a1,1,0,0,1,1-1h28m0-1h-28a2,2,0,0,0-2,2v12a2,2,0,0,0,2,2h28a2,2,0,0,0,2-2v-12a2,2,0,0,0-2-2Z"/><rect class="cls-4" x="46" y="24.38" width="32" height="16" rx="2"/><rect class="cls-4" x="10.18" y="49.06" width="32" height="16" rx="2"/></svg>