<svg id="透视表" xmlns="http://www.w3.org/2000/svg" viewBox="0 0 124 93"><defs><style>.cls-1{fill:#f2f2f2;}.cls-2{opacity:0.2;}.cls-3{opacity:0.15;}.cls-4{opacity:0.1;}</style></defs><rect class="cls-1" width="124" height="93"/><path class="cls-2" d="M27,18v0a64.13,64.13,0,0,1,9.31,12H87.79A64.28,64.28,0,0,1,97,18v0Z"/><path class="cls-3" d="M36.31,33a63.82,63.82,0,0,1,5.62,12h40.3a64.18,64.18,0,0,1,5.56-12Z"/><path class="cls-4" d="M41.93,48a63.91,63.91,0,0,1,2.92,12H79.37a64.59,64.59,0,0,1,2.86-12Z"/><path class="cls-4" d="M79.37,63H44.85a65.26,65.26,0,0,1,.65,9.12c0,1,0,1.92-.07,2.88h33.4c0-1-.08-2.09-.08-3.14A64.73,64.73,0,0,1,79.37,63Z"/></svg>