<svg id="透视表" xmlns="http://www.w3.org/2000/svg" viewBox="0 0 124 93"><defs><style>.cls-1{opacity:0.05;}.cls-2{fill:#fff;}.cls-3{opacity:0.2;}</style></defs><title>datafor-icons</title><rect class="cls-1" width="124" height="93"/><path class="cls-2" d="M99.27,66.31a2.5,2.5,0,0,1-2.49-2.49,34.9,34.9,0,0,0-69.8,0,2.5,2.5,0,0,1-5,0,39.89,39.89,0,0,1,79.78,0A2.5,2.5,0,0,1,99.27,66.31Z"/><g class="cls-3"><path d="M24.49,66.31A2.5,2.5,0,0,1,22,63.82,39.92,39.92,0,0,1,72,25.23a2.5,2.5,0,0,1-1.26,4.83A34.93,34.93,0,0,0,27,63.82,2.5,2.5,0,0,1,24.49,66.31Z"/></g><g class="cls-3"><polygon points="65.88 63.15 60.06 70.37 59.17 61.12 71.25 33.48 65.88 63.15"/></g></svg>