<svg xmlns="http://www.w3.org/2000/svg" xmlns:xlink="http://www.w3.org/1999/xlink" fill="none" version="1.1" width="344" height="242" viewBox="0 0 344 242"><defs><clipPath id="master_svg0_234_02938"><rect x="0" y="0" width="344" height="242" rx="0"/></clipPath></defs><g><rect x="0" y="0" width="344" height="242" rx="0" fill="#F2F2F2" fill-opacity="1"/><g clip-path="url(#master_svg0_234_02938)"><rect x="0" y="0" width="344" height="242" rx="0" fill="#F2F2F2" fill-opacity="1"/><g transform="matrix(0,1,-1,0,186,-140)" style="opacity:0.30000001192092896;"><rect x="163" y="23" width="20" height="91" rx="0" fill="#C2C2C2" fill-opacity="1"/></g><g transform="matrix(0,1,-1,0,289,-139)" style="opacity:0.30000001192092896;"><rect x="214" y="75" width="20" height="142" rx="0" fill="#C2C2C2" fill-opacity="1"/></g><g transform="matrix(0,1,-1,0,362,-108)" style="opacity:0.30000001192092896;"><rect x="235" y="127" width="20" height="163" rx="0" fill="#C2C2C2" fill-opacity="1"/></g><g transform="matrix(0,1,-1,0,373,-15)" style="opacity:0.30000001192092896;"><rect x="194" y="179" width="20" height="122" rx="0" fill="#C2C2C2" fill-opacity="1"/></g><g transform="matrix(0,1,-1,0,176,-90)"><rect x="133" y="43" width="20" height="61" rx="0" fill="#C2C2C2" fill-opacity="1"/></g><g transform="matrix(0,1,-1,0,367,-177)"><rect x="272" y="95" width="20" height="200" rx="0" fill="#C2C2C2" fill-opacity="1"/></g><g transform="matrix(0,1,-1,0,341,-47)"><rect x="194" y="147" width="20" height="122" rx="0" fill="#C2C2C2" fill-opacity="1"/></g><g transform="matrix(0,1,-1,0,362,36)"><rect x="163" y="199" width="20" height="91" rx="0" fill="#C2C2C2" fill-opacity="1"/></g></g></g></svg>