<svg id="透视表" xmlns="http://www.w3.org/2000/svg" viewBox="0 0 124 93"><defs><style>.cls-1{fill:#f2f2f2;}.cls-2{fill:#fff;}.cls-3,.cls-5{opacity:0.2;}.cls-4{opacity:0.1;}</style></defs><rect class="cls-1" width="124" height="93"/><rect class="cls-2" x="17.49" y="13.3" width="98" height="68"/><rect class="cls-3" x="24.08" y="18.12" width="6" height="12"/><rect class="cls-4" x="24.08" y="64.56" width="6" height="12"/><rect class="cls-3" x="38.09" y="46.5" width="6" height="12"/><rect class="cls-3" x="83.44" y="52.14" width="6" height="12"/><rect class="cls-4" x="51.98" y="58.56" width="6" height="12"/><rect class="cls-3" x="67.99" y="25.91" width="6" height="12"/><rect class="cls-4" x="67.99" y="39.61" width="6" height="12"/><rect class="cls-3" x="100.89" y="50.18" width="6" height="12"/><rect class="cls-4" x="100.89" y="63.67" width="6" height="12"/><rect class="cls-4" x="100.89" y="18.12" width="6" height="12"/><g class="cls-5"><path d="M6.63,18.73l.44-.09a.48.48,0,0,0,.53.47c.25,0,.38-.1.39-.28s-.09-.24-.28-.31l-.11,0-.28-.08c-.43-.1-.63-.3-.61-.63s.3-.57.8-.6.83.2.91.63L8,17.89a.39.39,0,0,0-.43-.34c-.22,0-.34.09-.35.23s.12.24.41.3a1.56,1.56,0,0,1,.47.16.61.61,0,0,1,.4.57c0,.42-.3.63-.85.65A.87.87,0,0,1,6.63,18.73Z"/><path d="M10.36,19.41H9.92v-.24a.61.61,0,0,1-.51.28c-.4,0-.6-.22-.6-.64v-1h.44v.92c0,.24.11.36.34.36s.3-.14.33-.39v-.89h.44Z"/><path d="M12.28,19.42h-.44v-.9c0-.24-.1-.37-.31-.37a.36.36,0,0,0-.34.39v.88h-.44V17.84h.44v.25a.64.64,0,0,1,.51-.28c.4,0,.59.2.58.64Z"/></g><g class="cls-5"><path d="M8.42,29.07H8V27.73a4,4,0,0,1,0-.5,3.78,3.78,0,0,1-.1.38c0,.1-.16.59-.42,1.46h-.4q-.42-1.35-.45-1.47s0-.09,0-.19a.85.85,0,0,1-.05-.18v0c0,.21,0,.39,0,.55v1.27H6.11v-2.2h.68c.27.94.42,1.44.43,1.48a1.52,1.52,0,0,1,0,.24h0a1.35,1.35,0,0,1,0-.2l0,0c0-.05.14-.54.4-1.48h.71Z"/><path d="M9.6,27.46a.82.82,0,1,1,0,1.64.82.82,0,1,1,0-1.64Zm0,1.31c.25,0,.38-.16.38-.48s-.13-.48-.38-.49-.39.17-.4.49S9.34,28.76,9.6,28.77Z"/><path d="M12.28,29.07h-.44v-.9c0-.24-.1-.37-.31-.37a.36.36,0,0,0-.34.39v.88h-.44V27.49h.44v.25a.64.64,0,0,1,.51-.28c.4,0,.59.2.58.64Z"/></g><g class="cls-5"><path d="M6.76,36.9H6v1.83H5.58V36.9H4.84v-.37H6.76Z"/><path d="M8.56,38.71H8.11v-.23a.58.58,0,0,1-.5.28c-.4,0-.6-.22-.6-.65v-1h.44v.92c0,.24.11.36.34.36s.3-.14.32-.39v-.89h.45Z"/><path d="M10.08,38.24l.48,0a.82.82,0,0,1-.85.47c-.56,0-.85-.29-.87-.79a.79.79,0,0,1,.83-.86.76.76,0,0,1,.86.86v.1H9.29a.38.38,0,0,0,.42.38A.35.35,0,0,0,10.08,38.24Zm-.8-.44h.81a.36.36,0,0,0-.4-.38A.38.38,0,0,0,9.28,37.8Z"/><path d="M12.22,37.54l-.45,0a.26.26,0,0,0-.28-.17c-.15,0-.23.05-.23.16s.07.14.24.18h.06l.28.06c.31.08.46.24.44.47s-.23.47-.7.47-.77-.13-.83-.48l.44-.05c0,.16.15.23.36.23s.28-.06.28-.19-.09-.14-.32-.19L11.19,38a.44.44,0,0,1-.39-.41c0-.31.24-.47.67-.48S12.14,37.24,12.22,37.54Z"/></g><g class="cls-5"><path d="M5.8,46.25h.47l.28,1.53a.1.1,0,0,0,0,0c0,.09,0,.15,0,.19h0c0-.06,0-.15,0-.24s.14-.62.35-1.52h.49c.24,1,.37,1.47.38,1.54a.85.85,0,0,1,0,.23h0a.69.69,0,0,1,0-.16.56.56,0,0,1,0-.07c0-.06.1-.57.27-1.54h.46l-.5,2.2H7.66C7.43,47.52,7.31,47,7.29,47a.78.78,0,0,1,0-.22h0v0a1.37,1.37,0,0,1,0,.2c0,.05-.14.54-.38,1.47H6.31Z"/><path d="M10,48l.47.05a.79.79,0,0,1-.84.46c-.56,0-.85-.28-.87-.79a.78.78,0,0,1,.83-.85.75.75,0,0,1,.85.85v.11H9.22c0,.24.16.36.42.38A.36.36,0,0,0,10,48Zm-.8-.45H10a.37.37,0,0,0-.4-.37A.38.38,0,0,0,9.21,47.52Z"/><path d="M11.84,46.12h.44v2.32h-.44v-.2a.53.53,0,0,1-.5.24c-.42,0-.65-.29-.67-.78s.24-.86.72-.86a.52.52,0,0,1,.45.27Zm0,1.55v-.09a.36.36,0,0,0-.34-.39c-.24,0-.37.17-.37.48s.12.48.35.49S11.85,48,11.85,47.67Z"/></g><g class="cls-5"><path d="M7.08,56.29H6.36v1.82H5.91V56.29H5.17v-.38H7.08Z"/><path d="M8.88,58.1H8.44v-.88c0-.25-.1-.37-.3-.37s-.34.14-.35.39v.86H7.35V55.79h.44v1a.64.64,0,0,1,.53-.29c.38,0,.57.21.56.64Z"/><path d="M10.81,58.1h-.44v-.23a.58.58,0,0,1-.51.27c-.4,0-.6-.21-.6-.64v-1h.45v.93q0,.36.33.36t.33-.39v-.9h.44Z"/><path d="M11.59,57.32v.78h-.44V56.54h.44v.29A.43.43,0,0,1,12,56.5a.6.6,0,0,1,.27.07l-.14.38a.36.36,0,0,0-.2-.06C11.71,56.9,11.59,57,11.59,57.32Z"/></g><g class="cls-5"><path d="M10.22,65.92H9.12v.57h1v.37h-1v.88H8.66v-2.2h1.56Z"/><path d="M11,67v.78h-.44V66.17H11v.29a.43.43,0,0,1,.42-.33.5.5,0,0,1,.27.07l-.14.38a.36.36,0,0,0-.2-.06C11.07,66.53,11,66.67,11,67Z"/><path d="M11.84,65.91v-.4h.44v.4Zm0,1.82V66.16h.44v1.57Z"/></g><g class="cls-5"><path d="M7.25,76.7l.44-.1a.49.49,0,0,0,.53.48c.25,0,.38-.11.39-.29s-.09-.23-.28-.3l-.11,0-.28-.08c-.42-.09-.63-.3-.61-.62s.3-.58.8-.6.83.2.91.62l-.45.08a.38.38,0,0,0-.43-.33c-.22,0-.34.08-.35.23s.12.24.41.29a1.9,1.9,0,0,1,.47.16.63.63,0,0,1,.4.57c0,.42-.3.64-.85.65A.85.85,0,0,1,7.25,76.7Z"/><path d="M11.05,77.37h-.43a.42.42,0,0,1-.07-.23.91.91,0,0,1-.69.27c-.31,0-.48-.17-.5-.44s.19-.46.59-.51a2.88,2.88,0,0,0,.58-.15c0-.16-.1-.24-.33-.23s-.32.07-.37.22l-.42-.07c.08-.31.34-.46.78-.46s.8.21.78.66v.62A.61.61,0,0,0,11.05,77.37Zm-.49-.69v-.12a1.51,1.51,0,0,1-.42.15c-.23,0-.35.12-.35.24s.08.17.26.17A.48.48,0,0,0,10.56,76.68Z"/><path d="M11.85,75.18v.62h.38v.34h-.38v.7c0,.17.07.25.2.25a.24.24,0,0,0,.14,0l.09.29a.76.76,0,0,1-.39.08.4.4,0,0,1-.47-.47v-.8h-.26V75.8h.26v-.52Z"/></g></svg>