<svg xmlns="http://www.w3.org/2000/svg" xmlns:xlink="http://www.w3.org/1999/xlink" fill="none" version="1.1" width="344" height="242" viewBox="0 0 344 242"><defs><clipPath id="master_svg0_218_04801"><rect x="0" y="32" width="344" height="210" rx="0"/></clipPath></defs><g><rect x="0" y="0" width="344" height="242" rx="0" fill="#F2F2F2" fill-opacity="1"/><g><rect x="0" y="0" width="344" height="32" rx="0" fill="#C2C2C2" fill-opacity="1"/></g><g clip-path="url(#master_svg0_218_04801)"><rect x="0" y="32" width="344" height="210" rx="0" fill="#F2F2F2" fill-opacity="1"/><g><g transform="matrix(0,1,-1,0,116,16)"><path d="M50,86L66,76.5L50,66L50,86Z" fill="#C2C2C2" fill-opacity="1"/></g><g><rect x="66" y="66" width="36" height="16" rx="0" fill="#C2C2C2" fill-opacity="1"/></g><g><rect x="118" y="66" width="196" height="16" rx="0" fill="#C2C2C2" fill-opacity="1"/></g></g><g><g transform="matrix(0,1,-1,0,154,62)" style="opacity:0;"><path d="M46,124L62,116.4L46,108L46,124Z" fill="#C2C2C2" fill-opacity="1"/></g><g transform="matrix(0,1,-1,0,186,30)" style="opacity:0;"><path d="M78,124L94,116.4L78,108L78,124Z" fill="#C2C2C2" fill-opacity="1"/></g><g><rect x="94" y="108" width="36" height="16" rx="0" fill="#C2C2C2" fill-opacity="1"/></g><g><rect x="146" y="108" width="168" height="16" rx="0" fill="#C2C2C2" fill-opacity="1"/></g></g><g><g transform="matrix(0,1,-1,0,200,100)"><path d="M50,170L66,160.5L50,150L50,170Z" fill="#C2C2C2" fill-opacity="1"/></g><g><rect x="66" y="150" width="36" height="16" rx="0" fill="#C2C2C2" fill-opacity="1"/></g><g><rect x="118" y="150" width="196" height="16" rx="0" fill="#C2C2C2" fill-opacity="1"/></g></g><g><g transform="matrix(0,1,-1,0,238,146)" style="opacity:0;"><path d="M46,208L62,200.4L46,192L46,208Z" fill="#C2C2C2" fill-opacity="1"/></g><g transform="matrix(0,1,-1,0,270,114)" style="opacity:0;"><path d="M78,208L94,200.4L78,192L78,208Z" fill="#C2C2C2" fill-opacity="1"/></g><g><rect x="94" y="192" width="36" height="16" rx="0" fill="#C2C2C2" fill-opacity="1"/></g><g><rect x="146" y="192" width="168" height="16" rx="0" fill="#C2C2C2" fill-opacity="1"/></g></g></g></g></svg>