<svg xmlns="http://www.w3.org/2000/svg" xmlns:xlink="http://www.w3.org/1999/xlink" fill="none" version="1.1" width="344" height="242" viewBox="0 0 344 242"><g><rect x="0" y="0" width="344" height="242" rx="0" fill="#F2F2F2" fill-opacity="1"/><g><rect x="0" y="0" width="344" height="32" rx="0" fill="#C2C2C2" fill-opacity="1"/></g><g><rect x="0" y="32" width="344" height="210" rx="0" fill="#F2F2F2" fill-opacity="1"/><g><g transform="matrix(0,1,-1,0,116,16)"><path d="M50,86L66,76.5L50,66L50,86Z" fill="#C2C2C2" fill-opacity="1"/></g><g><g><path d="M69,81.5C69,82.32849999999999,69.671573,83,70.5,83C70.5,83,85.5,83,85.5,83C86.32849999999999,83,87,82.32849999999999,87,81.5C87,81.5,87,66.5,87,66.5C87,65.671576,86.32849999999999,65,85.5,65C85.5,65,70.5,65,70.5,65C69.671576,65,69,65.671573,69,66.5C69,66.5,69,81.5,69,81.5C69,81.5,69,81.5,69,81.5ZM76.49996,76.0356C76.49996,76.0356,82.1623,70.37344,82.1623,70.37344C82.1623,70.37344,83.2229,71.43412000000001,83.2229,71.43412000000001C83.2229,71.43412000000001,76.49999,78.15690000000001,76.49999,78.15690000000001C76.49999,78.15690000000001,72.77015,74.42737,72.77015,74.42737C72.77015,74.42737,73.83075,73.36666,73.83075,73.36666C73.83075,73.36666,76.49996,76.0356,76.49996,76.0356C76.49996,76.0356,76.49996,76.0356,76.49996,76.0356Z" fill="#C2C2C2" fill-opacity="1"/></g></g><g><rect x="106" y="65" width="36" height="18" rx="0" fill="#C2C2C2" fill-opacity="1"/></g><g><rect x="158" y="65" width="156" height="18" rx="0" fill="#C2C2C2" fill-opacity="1"/></g></g><g><g transform="matrix(0,1,-1,0,174,42)" style="opacity:0;"><path d="M66,108L66,144L82,126.9L66,108Z" fill="#C2C2C2" fill-opacity="1"/></g><g><g><path d="M85,123.5C85,124.32849999999999,85.671573,125,86.5,125C86.5,125,101.5,125,101.5,125C102.32849999999999,125,103,124.32849999999999,103,123.5C103,123.5,103,108.5,103,108.5C103,107.671576,102.32849999999999,107,101.5,107C101.5,107,86.5,107,86.5,107C85.671576,107,85,107.671573,85,108.5C85,108.5,85,123.5,85,123.5C85,123.5,85,123.5,85,123.5ZM92.49996,118.0356C92.49996,118.0356,98.1623,112.37344,98.1623,112.37344C98.1623,112.37344,99.2229,113.43412000000001,99.2229,113.43412000000001C99.2229,113.43412000000001,92.49999,120.15690000000001,92.49999,120.15690000000001C92.49999,120.15690000000001,88.77015,116.42737,88.77015,116.42737C88.77015,116.42737,89.83075,115.36666,89.83075,115.36666C89.83075,115.36666,92.49996,118.0356,92.49996,118.0356C92.49996,118.0356,92.49996,118.0356,92.49996,118.0356Z" fill="#C2C2C2" fill-opacity="1"/></g></g><g><rect x="122" y="107" width="36" height="18" rx="0" fill="#C2C2C2" fill-opacity="1"/></g><g><rect x="174" y="107" width="140" height="18" rx="0" fill="#C2C2C2" fill-opacity="1"/></g></g><g><g transform="matrix(0,1,-1,0,200,100)"><path d="M50,170L66,160.5L50,150L50,170Z" fill="#C2C2C2" fill-opacity="1"/></g><g><g><path d="M70.5,167C69.671573,167,69,166.3285,69,165.5C69,165.5,69,150.5,69,150.5C69,149.671573,69.671576,149,70.5,149C70.5,149,85.5,149,85.5,149C86.32849999999999,149,87,149.671576,87,150.5C87,150.5,87,165.5,87,165.5C87,166.3285,86.32849999999999,167,85.5,167C85.5,167,70.5,167,70.5,167C70.5,167,70.5,167,70.5,167ZM70.5,165.5C70.5,165.5,70.5,150.5,70.5,150.5C70.5,150.5,85.5,150.5,85.5,150.5C85.5,150.5,85.5,165.5,85.5,165.5C85.5,165.5,70.5,165.5,70.5,165.5C70.5,165.5,70.5,165.5,70.5,165.5Z" fill-rule="evenodd" fill="#C2C2C2" fill-opacity="1"/></g></g><g><rect x="106" y="149" width="36" height="18" rx="0" fill="#C2C2C2" fill-opacity="1"/></g><g><rect x="158" y="149" width="156" height="18" rx="0" fill="#C2C2C2" fill-opacity="1"/></g></g><g><g transform="matrix(0,1,-1,0,258,126)" style="opacity:0;"><path d="M66,192L66,228L82,210.9L66,192Z" fill="#C2C2C2" fill-opacity="1"/></g><g><g><path d="M86.5,209C85.671573,209,85,208.3285,85,207.5C85,207.5,85,192.5,85,192.5C85,191.671573,85.671576,191,86.5,191C86.5,191,101.5,191,101.5,191C102.32849999999999,191,103,191.671576,103,192.5C103,192.5,103,207.5,103,207.5C103,208.3285,102.32849999999999,209,101.5,209C101.5,209,86.5,209,86.5,209C86.5,209,86.5,209,86.5,209ZM86.5,207.5C86.5,207.5,86.5,192.5,86.5,192.5C86.5,192.5,101.5,192.5,101.5,192.5C101.5,192.5,101.5,207.5,101.5,207.5C101.5,207.5,86.5,207.5,86.5,207.5C86.5,207.5,86.5,207.5,86.5,207.5Z" fill-rule="evenodd" fill="#C2C2C2" fill-opacity="1"/></g></g><g><rect x="122" y="191" width="36" height="18" rx="0" fill="#C2C2C2" fill-opacity="1"/></g><g><rect x="174" y="191" width="140" height="18" rx="0" fill="#C2C2C2" fill-opacity="1"/></g></g></g></g></svg>