<svg xmlns="http://www.w3.org/2000/svg" xmlns:xlink="http://www.w3.org/1999/xlink" fill="none" version="1.1" width="344" height="242" viewBox="0 0 344 242"><defs><clipPath id="master_svg0_238_8458"><rect x="0" y="0" width="344" height="242" rx="0"/></clipPath></defs><g clip-path="url(#master_svg0_238_8458)"><rect x="0" y="0" width="344" height="242" rx="0" fill="#F2F2F2" fill-opacity="1"/><g transform="matrix(0,-1,1,0,-131,277)"><rect x="73" y="204" width="30" height="65" rx="0" fill="#C2C2C2" fill-opacity="1"/></g><g transform="matrix(0,-1,1,0,-66,342)" style="opacity:0.699999988079071;"><rect x="138" y="204" width="30" height="43" rx="0" fill="#C2C2C2" fill-opacity="1"/></g><g transform="matrix(0,-1,1,0,-41,187)"><rect x="73" y="114" width="30" height="65" rx="0" fill="#C2C2C2" fill-opacity="1"/></g><g transform="matrix(0,-1,1,0,-88,234)"><rect x="73" y="161" width="30" height="58" rx="0" fill="#C2C2C2" fill-opacity="1"/></g><g transform="matrix(0,-1,1,0,-30,292)" style="opacity:0.699999988079071;"><rect x="131" y="161" width="30" height="59" rx="0" fill="#C2C2C2" fill-opacity="1"/></g><g transform="matrix(0,-1,1,0,6,140)"><rect x="73" y="67" width="30" height="43" rx="0" fill="#C2C2C2" fill-opacity="1"/></g><g transform="matrix(0,-1,1,0,49,183)" style="opacity:0.699999988079071;"><rect x="116" y="67" width="30" height="44" rx="0" fill="#C2C2C2" fill-opacity="1"/></g><g transform="matrix(0,-1,1,0,-23,385)" style="opacity:0.30000001192092896;"><rect x="181" y="204" width="30" height="57" rx="0" fill="#C2C2C2" fill-opacity="1"/></g><g transform="matrix(0,-1,1,0,88,316)" style="opacity:0.30000001192092896;"><rect x="202" y="114" width="30" height="43" rx="0" fill="#C2C2C2" fill-opacity="1"/></g><g transform="matrix(0,-1,1,0,24,252)" style="opacity:0.699999988079071;"><rect x="138" y="114" width="30" height="64" rx="0" fill="#C2C2C2" fill-opacity="1"/></g><g transform="matrix(0,-1,1,0,29,351)" style="opacity:0.30000001192092896;"><rect x="190" y="161" width="30" height="83" rx="0" fill="#C2C2C2" fill-opacity="1"/></g><g transform="matrix(0,-1,1,0,93,227)" style="opacity:0.30000001192092896;"><rect x="160" y="67" width="30" height="55" rx="0" fill="#C2C2C2" fill-opacity="1"/></g></g></svg>