<svg id="透视表" xmlns="http://www.w3.org/2000/svg" viewBox="0 0 124 93"><defs><style>.cls-1{fill:#f2f2f2;}.cls-2,.cls-3{opacity:0.2;}.cls-4{fill:#fff;}</style></defs><rect class="cls-1" width="124" height="93"/><g class="cls-2"><path d="M23.87,18.28a14.45,14.45,0,0,0,2.57-.22,8.14,8.14,0,0,0,2.25-.73A5.68,5.68,0,0,0,30.42,16a4.05,4.05,0,0,0,.93-2h3.41V39.7H30.18V21.58H23.87Z"/><path d="M68.94,39.7H51.41A10.46,10.46,0,0,1,53,34.12,14,14,0,0,1,57.06,30c.83-.61,1.7-1.2,2.6-1.78a20,20,0,0,0,2.5-1.85A10.13,10.13,0,0,0,64,24.2a5.2,5.2,0,0,0,.77-2.65,7.32,7.32,0,0,0-.17-1.49A3.93,3.93,0,0,0,64,18.59a3.77,3.77,0,0,0-1.32-1.13,4.55,4.55,0,0,0-2.2-.46,4,4,0,0,0-2.07.49,3.74,3.74,0,0,0-1.32,1.36,6.75,6.75,0,0,0-.74,2,14.33,14.33,0,0,0-.27,2.54H51.89a13.14,13.14,0,0,1,.57-4,8.54,8.54,0,0,1,1.7-3.13,8,8,0,0,1,2.77-2.07,8.86,8.86,0,0,1,3.8-.76,9,9,0,0,1,3.92.77,7.59,7.59,0,0,1,2.55,2,7,7,0,0,1,1.37,2.55A9.25,9.25,0,0,1,69,21.4a7.78,7.78,0,0,1-.48,2.79,9.34,9.34,0,0,1-1.28,2.29,12.82,12.82,0,0,1-1.84,1.92,25.65,25.65,0,0,1-2.12,1.65c-.74.52-1.47,1-2.2,1.47s-1.42.93-2,1.39a12.33,12.33,0,0,0-1.63,1.45,4,4,0,0,0-1,1.6h12.5Z"/><path d="M89.24,24.15A10.11,10.11,0,0,0,91.29,24a5.51,5.51,0,0,0,1.83-.64,3.54,3.54,0,0,0,1.31-1.27,3.68,3.68,0,0,0,.49-2,3.34,3.34,0,0,0-1.12-2.64,4.16,4.16,0,0,0-2.88-1,3.92,3.92,0,0,0-1.9.44,4,4,0,0,0-1.34,1.2,5.19,5.19,0,0,0-.79,1.68,6.58,6.58,0,0,0-.22,1.93H82.49a10.56,10.56,0,0,1,.7-3.47,8.76,8.76,0,0,1,1.7-2.77,7.64,7.64,0,0,1,2.62-1.83A8.79,8.79,0,0,1,91,13a10.24,10.24,0,0,1,3,.44,8.64,8.64,0,0,1,2.6,1.28,6.45,6.45,0,0,1,1.86,2.15,6.28,6.28,0,0,1,.69,3,6.39,6.39,0,0,1-.88,3.39,5,5,0,0,1-2.75,2.11v.07a5.32,5.32,0,0,1,3.43,2.18,7.19,7.19,0,0,1,1.23,4.24,7.26,7.26,0,0,1-.73,3.28,7.42,7.42,0,0,1-2,2.46,9.4,9.4,0,0,1-2.9,1.56A11.14,11.14,0,0,1,91,39.7a11,11,0,0,1-3.9-.64,7.64,7.64,0,0,1-2.79-1.82,7.86,7.86,0,0,1-1.7-2.82A11.47,11.47,0,0,1,82,30.75h4.18a5.82,5.82,0,0,0,1.16,3.91A4.43,4.43,0,0,0,91,36.21,5.24,5.24,0,0,0,94.54,35,4.18,4.18,0,0,0,96,31.63a4.23,4.23,0,0,0-.59-2.38,3.7,3.7,0,0,0-1.54-1.34,6.09,6.09,0,0,0-2.14-.57,19.72,19.72,0,0,0-2.44-.07Z"/></g><polygon class="cls-3" points="29.32 72.46 27.62 73.9 27.62 70 26.43 70 26.43 73.96 24.74 72.47 23.94 73.33 26.96 76 30.11 73.34 29.32 72.46"/><polygon class="cls-3" points="29.32 58.56 27.62 57.12 27.62 61.02 26.43 61.02 26.43 57.06 24.74 58.55 23.94 57.69 26.96 55.02 30.11 57.68 29.32 58.56"/><rect class="cls-4" x="32.94" y="55.02" width="67" height="6"/><rect class="cls-4" x="32.94" y="70" width="67" height="6"/></svg>