<?xml version="1.0" encoding="utf-8"?>
<!-- Svg Vector Icons : http://www.sfont.cn -->
<!DOCTYPE svg PUBLIC "-//W3C//DTD SVG 1.1//EN" "http://www.w3.org/Graphics/SVG/1.1/DTD/svg11.dtd">
<svg version="1.1" xmlns="http://www.w3.org/2000/svg" xmlns:xlink="http://www.w3.org/1999/xlink" x="0px" y="0px" viewBox="0 0 1000 1000" enable-background="new 0 0 1000 1000" xml:space="preserve" fill="#bfbfbf">
<metadata> Svg Vector Icons : http://www.sfont.cn </metadata>
<g><g transform="translate(0.000000,512.000000) scale(0.100000,-0.100000)"><path d="M4529.9,5008.5c-1696-174.6-3186.7-1210.6-3931.1-2730.1C420.4,1917.6,336,1687.4,242,1319.1C124.9,858.6,100,638,100,118c0-519.9,24.9-740.6,142-1201c94-368.4,178.4-598.6,356.9-959.3c473.9-968.9,1272-1767,2240.9-2242.8c360.7-176.5,590.9-260.9,959.3-354.9c460.4-117,681.1-142,1201-142s740.6,25,1201,142c368.3,94,598.6,178.4,959.3,354.9c968.9,475.8,1767,1273.9,2240.9,2242.8c178.4,360.7,262.8,590.9,356.8,959.3c117,460.5,142,681.1,142,1201c0,519.9-25,740.6-142,1201c-94,368.3-178.4,598.6-354.9,959.3c-308.9,627.4-773.2,1210.6-1321.9,1655.7c-376,307-943.9,629.3-1400.5,798.1c-249.4,92.1-711.8,209.1-990,249.4C5431.7,5020,4781.3,5035.3,4529.9,5008.5z M5633.1,4367.6C7350.2,4106.7,8745,2834.7,9170.9,1138.7c88.3-343.4,115.1-596.7,115.1-1020.7c0-715.6-136.3-1296.9-450.9-1918.6c-638.9-1264.3-1815-2116.2-3221.3-2334.9c-305-46-922.8-46-1227.9,0C2492.4-3841.9,1038.2-2387.6,746.5-495.9c-46,305-46,943.9,1.9,1237.5c320.4,1997.2,1903.2,3480.3,3906.2,3662.5C4831.2,4419.4,5437.4,4396.4,5633.1,4367.6z"/><path d="M5220.6,3162.8c-51.8-15.4-122.8-40.3-155.4-57.6c-82.5-42.2-282-260.9-331.9-362.6c-126.6-262.8-80.6-527.6,130.5-765.5c372.2-418.2,1066.7-324.2,1304.6,174.6c44.1,92.1,49.9,130.4,49.9,297.4c0,178.4-3.9,201.4-63.3,320.4c-78.7,161.2-230.2,303.1-383.7,360.7C5635,3183.9,5360.7,3199.3,5220.6,3162.8z"/><path d="M4366.9,1131c-111.3-23-723.3-222.5-790.4-257.1c-34.5-17.3-59.5-51.8-71-99.8c-48-184.2-63.3-255.2-55.6-262.9c5.8-5.8,65.2,13.4,132.4,42.2c105.5,44.1,149.6,51.8,314.6,49.9c356.9,0,448.9-86.3,450.9-410.6c0-236-30.7-379.9-257.1-1164.6c-216.8-750.1-251.3-917.1-249.4-1185.7c1.9-153.5,9.6-189.9,61.4-303.1c34.5-74.8,103.6-174.6,166.9-239.8c197.6-207.2,393.3-276.3,777-276.3c299.3,0,393.3,23,846.1,199.5l356.8,138.1l57.6,178.4c42.2,126.6,51.8,180.3,36.5,180.3c-13.4,0-71-15.4-128.5-36.4c-147.8-49.9-312.7-63.3-477.7-40.3c-159.3,23-214.9,51.8-268.6,138.1c-99.8,165-74.8,376,172.7,1387.1c103.6,422.1,199.5,848,212.9,943.9c32.6,253.3,15.4,479.6-48,608.2c-94,191.9-305.1,347.3-552.6,404.8C4917.5,1157.9,4506.9,1161.7,4366.9,1131z"/></g></g>
</svg>