<svg id="透视表" xmlns="http://www.w3.org/2000/svg" viewBox="0 0 124 93"><defs><style>.cls-1{fill:#f2f2f2;}.cls-2{opacity:0.2;}.cls-3{opacity:0.1;}.cls-4{fill:#fff;}</style></defs><rect class="cls-1" x="0.02" y="0.09" width="124" height="93"/><g class="cls-2"><polygon points="12.08 51.01 -0.02 46.03 0.02 43.88 11.69 48.68 33.58 29.33 68.69 45.46 85.93 34.84 116.55 46.73 124 45.08 124 47.12 116.39 48.82 86.13 37.07 68.83 47.73 33.93 31.69 12.08 51.01"/></g><g class="cls-3"><polygon points="0.02 63.45 0.03 61.39 12.01 58.4 25.84 42.45 38.09 52.32 48.56 23.85 57.74 53 74.34 58.47 89.95 44.35 112.34 59.54 124 52.44 124.02 54.77 112.28 61.92 90.13 46.89 74.82 60.74 56.14 54.57 48.42 30.04 39 55.63 26.09 45.22 13.11 60.19 0.02 63.45"/></g><polygon class="cls-4" points="100.78 75.75 85.91 66.53 63.19 74.54 52.2 71.88 39.79 73.6 24.7 62.8 11.84 75.71 0.02 73.2 0.02 71.16 11.19 73.53 24.48 60.19 40.3 71.51 52.3 69.85 63.08 72.45 86.15 64.32 100.94 73.49 111.91 68.68 124.02 73.18 124 75.3 111.97 70.83 100.78 75.75"/></svg>