<svg id="透视表" xmlns="http://www.w3.org/2000/svg" viewBox="0 0 124 93"><defs><style>.cls-1{fill:#f2f2f2;}.cls-2{opacity:0.2;}</style></defs><title>datafor-icons</title><rect class="cls-1" y="0.1" width="124" height="93"/><path class="cls-2" d="M58.06,38l6.18-6.66a8.1,8.1,0,0,1,12.05,0,9.56,9.56,0,0,1,0,12.84l-2.83,3.05a2.09,2.09,0,0,1-3.15-.11,2.34,2.34,0,0,1-.14-3.29l2.83-3a4.52,4.52,0,0,0,0-6,3.66,3.66,0,0,0-2.73-1.22,3.73,3.73,0,0,0-2.74,1.22l-6.19,6.67c-1.47,1.63-1.29,4.63.38,6.47.74,1.06.55,2-.41,3a2.34,2.34,0,0,1-3.26,0A9.59,9.59,0,0,1,58.06,38ZM47.69,49.09l2.92-3.32c.7-.75,2-.76,3.15.31a2.16,2.16,0,0,1,.08,3.06L51,52.47a4.53,4.53,0,0,0,0,6,3.68,3.68,0,0,0,2.73,1.23,3.73,3.73,0,0,0,2.75-1.23l6.19-6.67a4.93,4.93,0,0,0-.24-6.36,2.17,2.17,0,0,1,.4-3.1A2.22,2.22,0,0,1,66,42.16a9.9,9.9,0,0,1,0,13.08l-6.19,6.67a8.1,8.1,0,0,1-12,0,9.58,9.58,0,0,1,0-12.83Z"/></svg>