<svg xmlns="http://www.w3.org/2000/svg" xmlns:xlink="http://www.w3.org/1999/xlink" fill="none" version="1.1" width="344" height="242" viewBox="0 0 344 242"><defs><clipPath id="master_svg0_218_04967"><rect x="50" y="40" width="244" height="162" rx="0"/></clipPath></defs><g><rect x="0" y="0" width="344" height="242" rx="0" fill="#F2F2F2" fill-opacity="1"/><g clip-path="url(#master_svg0_218_04967)"><g><g><g><path d="M53,59.5C53,60.3285,53.671573,61,54.5,61C54.5,61,69.5,61,69.5,61C70.32849999999999,61,71,60.3285,71,59.5C71,59.5,71,44.5,71,44.5C71,43.671576,70.32849999999999,43,69.5,43C69.5,43,54.5,43,54.5,43C53.671576,43,53,43.671573,53,44.5C53,44.5,53,59.5,53,59.5C53,59.5,53,59.5,53,59.5ZM60.49996,54.0356C60.49996,54.0356,66.1623,48.37344,66.1623,48.37344C66.1623,48.37344,67.2229,49.43412,67.2229,49.43412C67.2229,49.43412,60.49999,56.1569,60.49999,56.1569C60.49999,56.1569,56.77015,52.427369999999996,56.77015,52.427369999999996C56.77015,52.427369999999996,57.83075,51.366659999999996,57.83075,51.366659999999996C57.83075,51.366659999999996,60.49996,54.0356,60.49996,54.0356C60.49996,54.0356,60.49996,54.0356,60.49996,54.0356Z" fill="#C2C2C2" fill-opacity="1"/></g></g><g><rect x="90" y="43" width="204" height="18" rx="0" fill="#C2C2C2" fill-opacity="1"/></g></g><g><g><g><path d="M54.5,107C53.671573,107,53,106.32849999999999,53,105.5C53,105.5,53,90.5,53,90.5C53,89.671573,53.671576,89,54.5,89C54.5,89,69.5,89,69.5,89C70.32849999999999,89,71,89.671576,71,90.5C71,90.5,71,105.5,71,105.5C71,106.32849999999999,70.32849999999999,107,69.5,107C69.5,107,54.5,107,54.5,107C54.5,107,54.5,107,54.5,107ZM54.5,105.5C54.5,105.5,54.5,90.5,54.5,90.5C54.5,90.5,69.5,90.5,69.5,90.5C69.5,90.5,69.5,105.5,69.5,105.5C69.5,105.5,54.5,105.5,54.5,105.5C54.5,105.5,54.5,105.5,54.5,105.5Z" fill-rule="evenodd" fill="#C2C2C2" fill-opacity="1"/></g></g><g><rect x="90" y="89" width="204" height="18" rx="0" fill="#C2C2C2" fill-opacity="1"/></g></g><g><g><g><path d="M53,151.5C53,152.3285,53.671573,153,54.5,153C54.5,153,69.5,153,69.5,153C70.32849999999999,153,71,152.3285,71,151.5C71,151.5,71,136.5,71,136.5C71,135.671576,70.32849999999999,135,69.5,135C69.5,135,54.5,135,54.5,135C53.671576,135,53,135.671573,53,136.5C53,136.5,53,151.5,53,151.5C53,151.5,53,151.5,53,151.5ZM60.49996,146.0356C60.49996,146.0356,66.1623,140.37344,66.1623,140.37344C66.1623,140.37344,67.2229,141.43412,67.2229,141.43412C67.2229,141.43412,60.49999,148.1569,60.49999,148.1569C60.49999,148.1569,56.77015,144.42737,56.77015,144.42737C56.77015,144.42737,57.83075,143.36666,57.83075,143.36666C57.83075,143.36666,60.49996,146.0356,60.49996,146.0356C60.49996,146.0356,60.49996,146.0356,60.49996,146.0356Z" fill="#C2C2C2" fill-opacity="1"/></g></g><g><rect x="90" y="135" width="204" height="18" rx="0" fill="#C2C2C2" fill-opacity="1"/></g></g><g><g><g><path d="M54.5,199C53.671573,199,53,198.3285,53,197.5C53,197.5,53,182.5,53,182.5C53,181.671573,53.671576,181,54.5,181C54.5,181,69.5,181,69.5,181C70.32849999999999,181,71,181.671576,71,182.5C71,182.5,71,197.5,71,197.5C71,198.3285,70.32849999999999,199,69.5,199C69.5,199,54.5,199,54.5,199C54.5,199,54.5,199,54.5,199ZM54.5,197.5C54.5,197.5,54.5,182.5,54.5,182.5C54.5,182.5,69.5,182.5,69.5,182.5C69.5,182.5,69.5,197.5,69.5,197.5C69.5,197.5,54.5,197.5,54.5,197.5C54.5,197.5,54.5,197.5,54.5,197.5Z" fill-rule="evenodd" fill="#C2C2C2" fill-opacity="1"/></g></g><g><rect x="90" y="181" width="204" height="18" rx="0" fill="#C2C2C2" fill-opacity="1"/></g></g></g></g></svg>