<svg id="透视表" xmlns="http://www.w3.org/2000/svg" viewBox="0 0 124 93"><defs><style>.cls-1{fill:#f2f2f2;}.cls-2{opacity:0.2;}.cls-3,.cls-4{opacity:0.3;}</style></defs><title>datafor-icons</title><rect class="cls-1" x="0.11" width="124" height="93"/><g class="cls-2"><polygon points="99 56.42 96.88 54.3 104.58 46.6 96.88 38.9 99 36.78 108.82 46.6 99 56.42"/></g><g class="cls-2"><polygon points="25.22 56.42 27.34 54.3 19.64 46.6 27.34 38.9 25.22 36.78 15.4 46.6 25.22 56.42"/></g><g class="cls-3"><path d="M50.49,50.1A3.5,3.5,0,1,1,54,46.6,3.5,3.5,0,0,1,50.49,50.1Zm0-6A2.5,2.5,0,1,0,53,46.6,2.5,2.5,0,0,0,50.49,44.1Z"/></g><circle class="cls-4" cx="62.11" cy="46.6" r="3.5"/><g class="cls-3"><path d="M73.74,50.1a3.5,3.5,0,1,1,3.5-3.5A3.5,3.5,0,0,1,73.74,50.1Zm0-6a2.5,2.5,0,1,0,2.5,2.5A2.5,2.5,0,0,0,73.74,44.1Z"/></g></svg>