<svg xmlns="http://www.w3.org/2000/svg" xmlns:xlink="http://www.w3.org/1999/xlink" fill="none" version="1.1" width="344" height="242" viewBox="0 0 344 242"><defs><clipPath id="master_svg0_218_04428"><rect x="0" y="32" width="344" height="210" rx="0"/></clipPath></defs><g><rect x="0" y="0" width="344" height="242" rx="0" fill="#F2F2F2" fill-opacity="1"/><g><rect x="0" y="0" width="344" height="32" rx="0" fill="#C2C2C2" fill-opacity="1"/></g><g clip-path="url(#master_svg0_218_04428)"><rect x="0" y="32" width="344" height="210" rx="0" fill="#F2F2F2" fill-opacity="1"/><g><g transform="matrix(0,1,-1,0,116,16)"><path d="M50,86L66,76.5L50,66L50,86Z" fill="#C2C2C2" fill-opacity="1"/></g><g><rect x="66" y="66" width="36" height="16" rx="0" fill="#C2C2C2" fill-opacity="1"/></g><g><rect x="118" y="66" width="196" height="16" rx="0" fill="#C2C2C2" fill-opacity="1"/></g></g><g><g style="opacity:0;"><path d="M30,124L46,116.4L30,108L30,124Z" fill="#C2C2C2" fill-opacity="1"/></g><g transform="matrix(0,1,-1,0,190,26)"><path d="M82,128L98,118.5L82,108L82,128Z" fill="#C2C2C2" fill-opacity="1"/></g><g><rect x="98" y="108" width="36" height="16" rx="0" fill="#C2C2C2" fill-opacity="1"/></g><g><rect x="150" y="108" width="164" height="16" rx="0" fill="#C2C2C2" fill-opacity="1"/></g></g><g><g transform="matrix(0,1,-1,0,196,104)" style="opacity:0;"><path d="M46,166L62,158.4L46,150L46,166Z" fill="#C2C2C2" fill-opacity="1"/></g><g transform="matrix(0,1,-1,0,228,72)" style="opacity:0;"><path d="M78,166L94,158.4L78,150L78,166Z" fill="#C2C2C2" fill-opacity="1"/></g><g transform="matrix(0,1,-1,0,260,40)" style="opacity:0;"><path d="M110,166L126,158.4L110,150L110,166Z" fill="#C2C2C2" fill-opacity="1"/></g><g><rect x="126" y="150" width="36" height="16" rx="0" fill="#C2C2C2" fill-opacity="1"/></g><g><rect x="178" y="150" width="136" height="16" rx="0" fill="#C2C2C2" fill-opacity="1"/></g></g><g><g><path d="M30,208L50,200.4L30,192L30,208Z" fill="#C2C2C2" fill-opacity="1"/></g><g><rect x="66" y="192" width="36" height="16" rx="0" fill="#C2C2C2" fill-opacity="1"/></g><g><rect x="118" y="192" width="196" height="16" rx="0" fill="#C2C2C2" fill-opacity="1"/></g></g></g></g></svg>