<svg xmlns="http://www.w3.org/2000/svg" xmlns:xlink="http://www.w3.org/1999/xlink" fill="none" version="1.1" width="344" height="242" viewBox="0 0 344 242"><g><rect x="0" y="0" width="344" height="242" rx="0" fill="#F2F2F2" fill-opacity="1"/><g><ellipse cx="172" cy="121" rx="57.5" ry="57.5" fill-opacity="0" stroke-opacity="1" stroke="#FFFFFF" fill="none" stroke-width="16"/></g><g><path d="M172,55.5Q173.6079,55.5,175.2139,55.5788976Q176.81990000000002,55.657795,178.4201,55.8154Q180.02030000000002,55.973005,181.61079999999998,56.208938Q183.2014,56.444871,184.7784,56.75856Q186.3554,57.07226,187.9152,57.46295Q189.4749,57.85365,191.0136,58.32041Q192.5523,58.78717,194.0663,59.32886Q195.5802,59.87056,197.0658,60.48589Q198.5513,61.10122,200.0048,61.7887Q201.45839999999998,62.47618,202.8765,63.23416Q204.2946,63.99213,205.6737,64.81878Q207.053,65.6454,208.39,66.5387Q209.727,67.4321,211.018,68.3899Q212.31,69.3478,213.553,70.3678Q214.796,71.3879,215.987,72.46770000000001Q217.179,73.5475,218.315,74.6845Q219.452,75.8215,220.53199999999998,77.0129Q221.612,78.2043,222.632,79.4472Q223.652,80.6902,224.61,81.9817Q225.56799999999998,83.2732,226.461,84.6101Q227.35500000000002,85.9471,228.18099999999998,87.3263Q229.00799999999998,88.7054,229.76600000000002,90.1235Q230.524,91.5416,231.211,92.99510000000001Q231.899,94.4487,232.514,95.9342Q233.12900000000002,97.41980000000001,233.671,98.9337Q234.213,100.4477,234.68,101.9864Q235.146,103.52510000000001,235.537,105.0848Q235.928,106.6445,236.241,108.2216Q236.555,109.7986,236.791,111.3892Q237.027,112.97970000000001,237.185,114.57990000000001Q237.342,116.18010000000001,237.421,117.7861Q237.5,119.3921,237.5,121Q237.5,123.5841,237.296,126.1602Q237.093,128.7363,236.687,131.2883Q236.281,133.8403,235.675,136.3524Q235.07,138.8646,234.268,141.3212L219.11700000000002,136.3766Q219.494,135.22,219.815,134.0462Q220.135,132.8724,220.397,131.6843Q220.66,130.4962,220.863,129.2967Q221.067,128.0972,221.211,126.8891Q221.356,125.681,221.441,124.4673Q221.526,123.2536,221.55200000000002,122.0372Q221.577,120.8208,221.543,119.6045Q221.50900000000001,118.3883,221.41500000000002,117.1753Q221.321,115.9622,221.168,114.7552Q221.014,113.54820000000001,220.80200000000002,112.3502Q220.59,111.1522,220.31900000000002,109.96600000000001Q220.048,108.7799,219.719,107.6084Q219.39,106.437,219.005,105.28309999999999Q218.619,104.1292,218.17700000000002,102.9956Q217.735,101.862,217.238,100.7515Q216.74099999999999,99.64099999999999,216.19,98.55619999999999Q215.639,97.4714,215.035,96.4149Q214.43200000000002,95.35849999999999,213.777,94.3329Q213.122,93.3074,212.418,92.3151Q211.714,91.3229,210.962,90.3665Q210.20999999999998,89.41,209.412,88.4916Q208.614,87.5732,207.772,86.695Q206.93,85.8169,206.0454,84.9811Q205.1612,84.14529999999999,204.237,83.354Q203.3129,82.5626,202.351,81.8175Q201.38909999999998,81.0725,200.39190000000002,80.3755Q199.3946,79.6785,198.36430000000001,79.0313Q197.334,78.3841,196.2732,77.7882Q195.2125,77.1923,194.12369999999999,76.64920000000001Q193.035,76.1061,191.92090000000002,75.6171Q190.8068,75.1281,189.67000000000002,74.6943Q188.5333,74.26050000000001,187.3766,73.883Q183.6531,72.6679,179.785,72.0526Q175.9168,71.4374,172,71.4374L172,55.5Z" fill="#C2C2C2" fill-opacity="1"/></g><g><path d="M151.7060590625,122.681201953125L153.2529290625,122.681201953125Q154.9580090625,122.681201953125,156.0654390625,123.721101953125Q157.1904390625,124.796101953125,157.2255390625,126.752201953125Q157.1904390625,128.673201953125,156.0654390625,129.713001953125Q154.9580090625,130.823201953125,153.3408190625,130.823201953125Q151.8290990625,130.823201953125,150.9150390625,129.994801953125Q150.0185590625,129.201901953125,149.5263690625,127.915401953125L145.8525390625,127.915401953125Q146.4501950625,131.108801953125,148.4716790625,132.793301953125Q150.4931590625,134.477801953125,153.1123090625,134.477801953125Q156.5048390625,134.442601953125,158.6670390625,132.315701953125Q160.8642390625,130.241501953125,160.8994390625,126.637901953125Q160.8994390625,125.020801953125,160.2138390625,123.544201953125Q159.4931390625,122.067601953125,157.8759390625,121.012901953125Q159.4580390625,119.940701953125,160.0732390625,118.569601953125Q160.6005390625,117.198481953125,160.6005390625,115.721921953125Q160.5654390625,112.803951953125,158.5966390625,110.659421953125Q156.5400390625,108.462158153125,153.0419890625,108.427001953125Q150.2822290625,108.462158153125,148.2958990625,110.394931953125Q146.2744140625,112.345271953125,145.9931640625,115.191561953125L149.6669890625,115.191561953125Q150.0185590625,113.601291953125,151.0380890625,112.841311953125Q152.0048790625,112.081601953125,153.1826190625,112.081601953125Q154.8173790625,112.11703195312501,155.8545390625,113.124201953125Q156.8916390625,114.166811953125,156.9267390625,115.792511953125Q156.9267390625,117.400361953125,155.8896390625,118.407531953125Q154.8525390625,119.450101953125,152.9716790625,119.450101953125L151.7060590625,119.450101953125L151.7060590625,122.681201953125ZM174.8916390625,126.895301953125Q174.7861390625,130.788001953125,171.2880390625,130.823201953125Q167.77243906249998,130.788001953125,167.7021390625,126.895301953125L167.7021390625,116.009491953125Q167.77243906249998,112.152191953125,171.2880390625,112.081601953125Q174.7861390625,112.152191953125,174.8916390625,116.009491953125L174.8916390625,126.895301953125ZM164.0283390625,127.106501953125Q164.0634390625,130.634201953125,166.2959390625,132.547201953125Q168.3877390625,134.442601953125,171.2880390625,134.477801953125Q174.2763390625,134.442601953125,176.3681390625,132.544201953125Q178.49513906250002,130.628201953125,178.5654390625,127.095001953125L178.5654390625,115.792231953125Q178.49513906250002,112.241451953125,176.3681390625,110.325441953125Q174.2763390625,108.427001953125,171.2880390625,108.427001953125Q168.3877390625,108.427001953125,166.2959390625,110.322421953125Q164.0634390625,112.235411953125,164.0283390625,115.780701953125L164.0283390625,127.106501953125ZM192.0654390625,128.729201953125Q192.0654390625,126.952701953125,193.4013390625,126.952701953125Q194.73733906249998,126.952701953125,194.73733906249998,128.729201953125L194.73733906249998,130.663901953125Q194.73733906249998,132.440401953125,193.4013390625,132.440401953125Q192.0654390625,132.440401953125,192.0654390625,130.663901953125L192.0654390625,128.729201953125ZM190.0087390625,130.927801953125Q190.0439390625,132.790601953125,191.0986390625,133.616701953125Q192.0654390625,134.477801953125,193.4013390625,134.477801953125Q194.77243906249998,134.477801953125,195.7744390625,133.616701953125Q196.2841390625,133.194901953125,196.53023906250002,132.509301953125Q196.7763390625,131.859201953125,196.7763390625,130.927501953125L196.7763390625,128.467201953125Q196.7412390625,126.604201953125,195.7744390625,125.742801953125Q194.77243906249998,124.916901953125,193.4013390625,124.916901953125Q192.0654390625,124.916901953125,191.0986390625,125.742601953125Q190.0439390625,126.603301953125,190.0087390625,128.465201953125L190.0087390625,130.927801953125ZM181.7646390625,114.43817195312499Q181.79983906249998,116.300901953125,182.8545390625,117.126801953125Q183.8213390625,117.987851953125,185.1572390625,117.987851953125Q186.5283390625,117.987851953125,187.53023906250002,117.126801953125Q188.0400390625,116.704921953125,188.2861390625,116.019381953125Q188.5322390625,115.369261953125,188.5322390625,114.437621953125L188.5322390625,111.977231953125Q188.4970390625,110.114231953125,187.53023906250002,109.252898953125Q186.5283390625,108.427001953125,185.1572390625,108.427001953125Q183.8213390625,108.427001953125,182.8545390625,109.252898953125Q181.79983906249998,110.113951953125,181.7646390625,111.976681953125L181.7646390625,114.43817195312499ZM183.8213390625,112.240351953125Q183.8213390625,110.464411953125,185.1572390625,110.464411953125Q186.4931390625,110.464411953125,186.4931390625,112.240351953125L186.4931390625,114.174501953125Q186.4931390625,115.950441953125,185.1572390625,115.950441953125Q183.8213390625,115.950441953125,183.8213390625,114.174501953125L183.8213390625,112.240351953125ZM182.0283390625,134.266801953125L184.4013390625,134.266801953125L196.53023906250002,108.637939953125L194.1572390625,108.637939953125L182.0283390625,134.266801953125Z" fill="#C2C2C2" fill-opacity="1"/></g></g></svg>