<svg id="透视表" xmlns="http://www.w3.org/2000/svg" viewBox="0 0 124 93"><defs><style>.cls-1{fill:#f2f2f2;}.cls-2{opacity:0.05;}.cls-3{opacity:0.1;}.cls-4{fill:#fff;}.cls-5,.cls-6{opacity:0.2;}</style></defs><rect class="cls-1" width="124" height="93"/><rect class="cls-2" width="124" height="93"/><polygon class="cls-3" points="0 93 0 74.68 19.38 78.53 31.77 74.4 78.28 68.2 93 77.5 114.7 80.6 123.61 76.62 123.61 93 0 93"/><polygon class="cls-2" points="124 76.62 114.7 80.6 93 77.5 78.28 68.2 31.77 74.4 19.38 78.53 0 74.68 0 60.33 24.8 56.83 49.6 60.97 93.78 53.73 109.28 63.03 124 62 124 76.62"/><polygon class="cls-4" points="124 62 109.28 63.03 93.78 53.73 49.6 60.97 24.8 56.83 0 60.33 0 31 12.4 31 32.55 25.83 50.96 24.54 83.12 19.89 104.24 15.5 117.41 23.77 124 22.73 124 62"/><polygon class="cls-5" points="124 22.73 117.41 23.77 104.24 15.5 83.12 19.89 50.96 24.54 32.55 25.83 12.4 31 0 31 0 0 124 0 124 22.73"/><g class="cls-6"><path d="M61.6,44.78a4.13,4.13,0,0,1,.33-1.66,4.06,4.06,0,0,1,.88-1.33,4.35,4.35,0,0,1,4.65-.89,4.12,4.12,0,0,1,2.22,2.22,4.44,4.44,0,0,1,0,3.31,4.09,4.09,0,0,1-.89,1.33,3.94,3.94,0,0,1-1.33.89A4.17,4.17,0,0,1,65.8,49a4.12,4.12,0,0,1-1.65-.33,4,4,0,0,1-1.34-.89,4.06,4.06,0,0,1-.88-1.33A4.12,4.12,0,0,1,61.6,44.78Zm1.73,0a2.15,2.15,0,0,0,.21.94,2.69,2.69,0,0,0,.54.8,2.44,2.44,0,0,0,.77.54,2.56,2.56,0,0,0,1,.19,2.48,2.48,0,0,0,1-.19,2.37,2.37,0,0,0,.78-.54,2.89,2.89,0,0,0,.54-.8,2.33,2.33,0,0,0,0-1.89,2.7,2.7,0,0,0-.54-.79,2.11,2.11,0,0,0-.78-.54,2.31,2.31,0,0,0-1-.2,2.38,2.38,0,0,0-1,.2,2.16,2.16,0,0,0-.77.54,2.52,2.52,0,0,0-.54.79A2.17,2.17,0,0,0,63.33,44.78Z"/><path d="M54,33.76a4.15,4.15,0,0,1,1.21-3,4.09,4.09,0,0,1,1.33-.89,4.44,4.44,0,0,1,3.31,0,4,4,0,0,1,1.33.89,4,4,0,0,1,.89,1.33,4.17,4.17,0,0,1,.33,1.66,4.12,4.12,0,0,1-.33,1.65,4,4,0,0,1-2.22,2.22,4.32,4.32,0,0,1-3.31,0,4.06,4.06,0,0,1-1.33-.88,4.19,4.19,0,0,1-1.21-3Zm1.72,0a2.23,2.23,0,0,0,.21,1,2.64,2.64,0,0,0,.54.79,2.37,2.37,0,0,0,.78.54,2.45,2.45,0,0,0,1.89,0,2.37,2.37,0,0,0,.78-.54,2.64,2.64,0,0,0,.54-.79,2.23,2.23,0,0,0,.21-1,2.2,2.2,0,0,0-.21-.95,2.52,2.52,0,0,0-.54-.79,2.37,2.37,0,0,0-.78-.54,2.45,2.45,0,0,0-1.89,0,2.37,2.37,0,0,0-.78.54,2.52,2.52,0,0,0-.54.79A2.2,2.2,0,0,0,55.72,33.76Z"/><rect x="60.53" y="29.77" width="2" height="20" transform="matrix(0.82, 0.57, -0.57, 0.82, 33.94, -28.1)"/></g></svg>