<svg id="透视表" xmlns="http://www.w3.org/2000/svg" viewBox="0 0 124 93"><defs><style>.cls-1{fill:#f2f2f2;}.cls-2{opacity:0.1;}</style></defs><title>datafor-icons</title><rect class="cls-1" width="124" height="93"/><path class="cls-2" d="M62,14.37,28.35,40.07,41.09,81.28l.11.35H82.81L95.54,40.41l.11-.34ZM30.12,40,61.5,16v4.25L34.36,41ZM89.9,41.19,62.5,20.26V16l31.68,24.2ZM62.79,48.46,77.74,45,72.07,63.39ZM71.33,64.1H52.67l9.33-15ZM62.5,47.5v-15l15,11.5Zm-1,0L46.6,43.93,61.5,32.54Zm-.29,1L51.93,63.39,46.21,44.86ZM52.05,65.1H72l2.8,4.51H49.25Zm20.72-.58,6.1-19.76,4.38-1L75.48,68.88Zm6-20.77L62.5,31.28V27L83.09,42.76ZM61.5,31.28,45.34,43.63l-4.24-1L61.5,27ZM45.08,44.59l6.15,19.93-2.71,4.37L40.69,43.54Zm3.55,26H75.37l2.8,4.51H45.83ZM76.18,70l8.19-26.52,4.38-1-9.86,31.9Zm8.18-27.54L62.5,25.77V21.52l26.13,20ZM61.5,21.52v4.25L39.85,42.31l-4.24-1ZM39.56,43.27,47.82,70l-2.71,4.37L35.17,42.22Zm5.65,32.85H78.79l2.81,4.51H42.41Zm34.38-.62L89.87,42.22l4.38-1-12,38.65ZM29.65,40.9,34,42,44.41,75.51,41.7,79.87Z"/><polygon class="cls-2" points="62 14.44 45.05 43.99 47.89 70.5 82.8 81.61 62.03 48.12 62 14.44"/></svg>