<svg id="透视表" xmlns="http://www.w3.org/2000/svg" viewBox="0 0 124 93"><defs><style>.cls-1{fill:#f2f2f2;}.cls-2,.cls-4{fill:#383838;}.cls-2{opacity:0.2;}.cls-3{fill:#fff;}.cls-4{opacity:0.1;}</style></defs><rect class="cls-1" width="124" height="93"/><polygon class="cls-2" points="6 37.36 0 37.36 0 0 6 0 6 10.43 6 37.36"/><rect class="cls-2" x="118" width="6" height="24"/><rect class="cls-2" x="118" y="69.9" width="6" height="23.1"/><rect class="cls-2" x="118" y="31.24" width="6" height="24.96"/><rect class="cls-2" y="62.51" width="6" height="30.49"/><path class="cls-3" d="M6,17.31V0S34.87,0,58.6,24.45c21.37,22,36,41.87,59.39,45.46V82.83S91.23,77.77,66.1,46.9C40.7,15.69,6,17.31,6,17.31Z"/><path class="cls-3" d="M6,20.29s29.67-.94,57.22,31.48C92.39,86.1,118,83,118,83V93c-7.25-.27-28.49,3.5-60.45-31.75C31.74,32.8,6,37.36,6,37.36Z"/><path class="cls-4" d="M6,74.72V62.51s23.64,1.21,53.23-31.19S118,0,118,0V24S96,20.53,62,46.4C39.11,63.83,26.43,74.93,6,74.72Z"/><path class="cls-4" d="M6,92.9V82.67c19-1.33,34.62-11.5,59-32s53-19.41,53-19.41v25S97.38,50.93,64.35,69.56C47.14,79.27,30.23,93.11,6,92.9Z"/></svg>