<svg xmlns="http://www.w3.org/2000/svg" xmlns:xlink="http://www.w3.org/1999/xlink" fill="none" version="1.1" width="344" height="242" viewBox="0 0 344 242"><defs><clipPath id="master_svg0_271_8619"><rect x="313" y="211" width="24" height="24" rx="0"/></clipPath></defs><g><rect x="0" y="0" width="344" height="242" rx="0" fill="#F2F2F2" fill-opacity="1"/><g style="opacity:0.30000001192092896;"><rect x="48" y="117" width="248" height="8" rx="0" fill="#C2C2C2" fill-opacity="1"/></g><g><g style="opacity:0.5;"><path d="M306 208C306 205.7908610006768 307.79086100067684 204 310 204L344 204C344 204 344 204 344 204L344 242C344 242 344 242 344 242L306 242C306 242 306 242 306 242Z" fill="#D8D8D8" fill-opacity="1"/></g><g clip-path="url(#master_svg0_271_8619)"><g></g><g><path d="M317.5,219L317.5,232Q317.5,232.0985,317.519215,232.1951Q317.53843,232.2917,317.576121,232.3827Q317.613812,232.4737,317.66853,232.5556Q317.723249,232.6375,317.792893,232.7071Q317.862537,232.7767,317.94443,232.8315Q318.026322,232.8862,318.117317,232.9239Q318.208311,232.9616,318.30491,232.9808Q318.4015086,233,318.5,233Q318.5984914,233,318.69509,232.9808Q318.791689,232.9616,318.882683,232.9239Q318.973678,232.8862,319.05557,232.8315Q319.137463,232.7767,319.207107,232.7071Q319.276751,232.6375,319.33147,232.5556Q319.386188,232.4737,319.423879,232.3827Q319.46157,232.2917,319.480785,232.1951Q319.5,232.0985,319.5,232L319.5,219Q319.5,218.9015086,319.480785,218.80491Q319.46157,218.708311,319.423879,218.617317Q319.386188,218.526322,319.33147,218.44443Q319.276751,218.362537,319.207107,218.292893Q319.137463,218.223249,319.05557,218.16853Q318.973678,218.113812,318.882683,218.076121Q318.791689,218.03843,318.69509,218.019215Q318.5984914,218,318.5,218Q318.4015086,218,318.30491,218.019215Q318.208311,218.03843,318.117317,218.076121Q318.026322,218.113812,317.94443,218.16853Q317.862537,218.223249,317.792893,218.292893Q317.723249,218.362537,317.66853,218.44443Q317.613812,218.526322,317.576121,218.617317Q317.53843,218.708311,317.519215,218.80491Q317.5,218.9015086,317.5,219Z" fill-rule="evenodd" fill="#C2C2C2" fill-opacity="1"/></g><g><path d="M324,225.5L324,232Q324,232.09849,324.019215,232.19509Q324.03843,232.29169,324.076121,232.38268Q324.113812,232.47368,324.16853,232.55557Q324.223249,232.63746,324.292893,232.70711Q324.362537,232.77675,324.44443,232.83147Q324.526322,232.88619,324.617317,232.92388Q324.708311,232.96157,324.80491,232.98078Q324.9015086,233,325,233Q325.0984914,233,325.19509,232.98078Q325.291689,232.96157,325.382683,232.92388Q325.473678,232.88619,325.55557,232.83147Q325.637463,232.77675,325.707107,232.70711Q325.776751,232.63746,325.83147,232.55557Q325.886188,232.47368,325.923879,232.38268Q325.96157,232.29169,325.980785,232.19509Q326,232.09849,326,232L326,225.5Q326,225.4015086,325.980785,225.30491Q325.96157,225.208311,325.923879,225.117317Q325.886188,225.026322,325.83147,224.94443Q325.776751,224.862537,325.707107,224.792893Q325.637463,224.723249,325.55557,224.66853Q325.473678,224.613812,325.382683,224.576121Q325.291689,224.53843,325.19509,224.519215Q325.0984914,224.5,325,224.5Q324.9015086,224.5,324.80491,224.519215Q324.708311,224.53843,324.617317,224.576121Q324.526322,224.613812,324.44443,224.66853Q324.362537,224.723249,324.292893,224.792893Q324.223249,224.862537,324.16853,224.94443Q324.113812,225.026322,324.076121,225.117317Q324.03843,225.208311,324.019215,225.30491Q324,225.4015086,324,225.5Z" fill-rule="evenodd" fill="#C2C2C2" fill-opacity="1"/></g><g><path d="M326,220.5L326,214Q326,213.9015086,325.980785,213.80491Q325.96157,213.708311,325.923879,213.617317Q325.886188,213.526322,325.83147,213.44443Q325.776751,213.362537,325.707107,213.292893Q325.637463,213.223249,325.55557,213.16853Q325.473678,213.113812,325.382683,213.076121Q325.291689,213.03843,325.19509,213.019215Q325.0984914,213,325,213Q324.9015086,213,324.80491,213.019215Q324.708311,213.03843,324.617317,213.076121Q324.526322,213.113812,324.44443,213.16853Q324.362537,213.223249,324.292893,213.292893Q324.223249,213.362537,324.16853,213.44443Q324.113812,213.526322,324.076121,213.617317Q324.03843,213.708311,324.019215,213.80491Q324,213.9015086,324,214L324,220.5Q324,220.59849,324.019215,220.69509Q324.03843,220.79169,324.076121,220.88268Q324.113812,220.97368,324.16853,221.05557Q324.223249,221.13746,324.292893,221.20711Q324.362537,221.27675,324.44443,221.33147Q324.526322,221.38619,324.617317,221.42388Q324.708311,221.46157,324.80491,221.48078Q324.9015086,221.5,325,221.5Q325.0984914,221.5,325.19509,221.48078Q325.291689,221.46157,325.382683,221.42388Q325.473678,221.38619,325.55557,221.33147Q325.637463,221.27675,325.707107,221.20711Q325.776751,221.13746,325.83147,221.05557Q325.886188,220.97368,325.923879,220.88268Q325.96157,220.79169,325.980785,220.69509Q326,220.59849,326,220.5Z" fill-rule="evenodd" fill="#C2C2C2" fill-opacity="1"/></g><g><path d="M330.5,214L330.5,227Q330.5,227.0985,330.519215,227.1951Q330.53843,227.2917,330.576121,227.3827Q330.613812,227.4737,330.66853,227.5556Q330.723249,227.6375,330.792893,227.7071Q330.862537,227.7767,330.94443,227.8315Q331.026322,227.8862,331.117317,227.9239Q331.208311,227.9616,331.30491,227.9808Q331.4015086,228,331.5,228Q331.5984914,228,331.69509,227.9808Q331.791689,227.9616,331.882683,227.9239Q331.973678,227.8862,332.05557,227.8315Q332.137463,227.7767,332.207107,227.7071Q332.276751,227.6375,332.33147,227.5556Q332.386188,227.4737,332.423879,227.3827Q332.46157,227.2917,332.480785,227.1951Q332.5,227.0985,332.5,227L332.5,214Q332.5,213.9015086,332.480785,213.80491Q332.46157,213.708311,332.423879,213.617317Q332.386188,213.526322,332.33147,213.44443Q332.276751,213.362537,332.207107,213.292893Q332.137463,213.223249,332.05557,213.16853Q331.973678,213.113812,331.882683,213.076121Q331.791689,213.03843,331.69509,213.019215Q331.5984914,213,331.5,213Q331.4015086,213,331.30491,213.019215Q331.208311,213.03843,331.117317,213.076121Q331.026322,213.113812,330.94443,213.16853Q330.862537,213.223249,330.792893,213.292893Q330.723249,213.362537,330.66853,213.44443Q330.613812,213.526322,330.576121,213.617317Q330.53843,213.708311,330.519215,213.80491Q330.5,213.9015086,330.5,214Z" fill-rule="evenodd" fill="#C2C2C2" fill-opacity="1"/></g><g><path d="M316.025127,214.0251269Q315,215.05025,315,216.5Q315,217.94974,316.0251259,218.97487Q317.05025,220,318.5,220Q319.94974,220,320.97487,218.97487Q322,217.94974,322,216.5Q322,215.05025,320.97487,214.025126Q319.94974,213,318.5,213Q317.05025,213,316.025127,214.0251269ZM317.43934,217.56066Q317,217.12131,317,216.5Q317,215.87868,317.43934,215.43934Q317.87868,215,318.5,215Q319.12131,215,319.56066,215.43934Q320,215.87868,320,216.5Q320,217.12131,319.56066,217.56066Q319.12131,218,318.5,218Q317.87868,218,317.43934,217.56066Z" fill-rule="evenodd" fill="#C2C2C2" fill-opacity="1"/></g><g><path d="M322.5251307,220.5251307Q321.5,221.55026,321.5,223Q321.5,224.44974,322.5251307,225.47487Q323.55026,226.5,325,226.5Q326.44974,226.5,327.47487,225.47487Q328.5,224.44974,328.5,223Q328.5,221.55026,327.47487,220.5251307Q326.44974,219.5,325,219.5Q323.55026,219.5,322.5251307,220.5251307ZM323.93934,224.06066Q323.5,223.62131,323.5,223Q323.5,222.37869,323.93934,221.93934Q324.37869,221.5,325,221.5Q325.62131,221.5,326.06066,221.93934Q326.5,222.37869,326.5,223Q326.5,223.62131,326.06066,224.06066Q325.62131,224.5,325,224.5Q324.37869,224.5,323.93934,224.06066Z" fill-rule="evenodd" fill="#C2C2C2" fill-opacity="1"/></g><g><path d="M329.0251307,227.0251307Q328,228.05026,328,229.5Q328,230.94974,329.0251307,231.97487Q330.05026,233,331.5,233Q332.94974,233,333.97487,231.97487Q335,230.94974,335,229.5Q335,228.05026,333.97487,227.0251307Q332.94974,226,331.5,226Q330.05026,226,329.0251307,227.0251307ZM330.43934,230.56066Q330,230.12131,330,229.5Q330,228.87869,330.43934,228.43934Q330.87869,228,331.5,228Q332.12131,228,332.56066,228.43934Q333,228.87869,333,229.5Q333,230.12131,332.56066,230.56066Q332.12131,231,331.5,231Q330.87869,231,330.43934,230.56066Z" fill-rule="evenodd" fill="#C2C2C2" fill-opacity="1"/></g></g></g><g><ellipse cx="172" cy="121" rx="12" ry="12" fill="#F2F2F2" fill-opacity="1"/><ellipse cx="172" cy="121" rx="10" ry="10" fill-opacity="0" stroke-opacity="1" stroke="#C2C2C2" fill="none" stroke-width="4"/></g></g></svg>