<svg id="透视表" xmlns="http://www.w3.org/2000/svg" viewBox="0 0 124 93"><defs><style>.cls-1{fill:#f2f2f2;}.cls-2{opacity:0.2;}.cls-3{opacity:0.05;}.cls-4{fill:#fff;}</style></defs><rect class="cls-1" width="124" height="93"/><polygon class="cls-2" points="0 93 0 61.17 19.38 62.58 35.62 66.9 72.25 59.51 94.37 64.83 114.65 62.95 124 66.9 124 93 0 93"/><polygon class="cls-3" points="124 43.46 124 66.9 114.65 62.95 94.37 64.83 72.25 59.51 35.62 66.9 19.38 62.58 0 61.17 0 39.36 9.34 41.05 19.39 39.36 43.04 43.02 63.31 44.8 86.11 42.55 108.92 42.27 124 43.46"/><polygon class="cls-4" points="124 43.46 124 24.45 91.18 21.81 45.96 25.02 16.86 22.95 0 21.29 0 39.36 9.34 41.05 23.85 40.05 43.04 43.02 63.31 44.8 86.11 42.55 108.92 42.27 124 43.46"/></svg>