<svg id="透视表" xmlns="http://www.w3.org/2000/svg" viewBox="0 0 124 93"><defs><style>.cls-1{fill:#f2f2f2;}.cls-2{opacity:0.2;}.cls-3{opacity:0.1;}</style></defs><rect class="cls-1" width="124" height="93"/><path class="cls-2" d="M63.9,44.37V32.17a13,13,0,0,0-11.22,8.56Z"/><path class="cls-3" d="M65.9,32.17V47.12L52.14,42.65a12.54,12.54,0,0,0-.24,2.47,13,13,0,1,0,14-12.95Z"/><path class="cls-2" d="M50.77,40.12A15,15,0,0,1,63.9,30.17v-15A30,30,0,0,0,36.49,35.48Z"/><path class="cls-3" d="M60.86,59.55A14.92,14.92,0,0,1,50.23,42L35.91,37.39a30.34,30.34,0,0,0-1,7.73A30,30,0,0,0,57.48,74.19Z"/><path class="cls-3" d="M78.26,38.29l13-7.5A30,30,0,0,0,65.9,15.14v15A15,15,0,0,1,78.26,38.29Z"/><path class="cls-3" d="M79,40.15a15,15,0,0,1-14.14,20A15.78,15.78,0,0,1,62.82,60L59.43,74.61a30,30,0,0,0,32.73-42Z"/></svg>