<?xml version="1.0" standalone="no"?><!DOCTYPE svg PUBLIC "-//W3C//DTD SVG 1.1//EN" "http://www.w3.org/Graphics/SVG/1.1/DTD/svg11.dtd"><svg t="1584667336739" class="icon" viewBox="0 0 1024 1024" version="1.1" xmlns="http://www.w3.org/2000/svg" p-id="5074" xmlns:xlink="http://www.w3.org/1999/xlink" width="32" height="32"><defs><style type="text/css"></style></defs><path d="M467 557.06c12 12 28.02 18.66 45 18.66 0 0 0 0 0 0 16.98 0 33-6.6 45-18.66 12-12 18.66-28.02 18.66-45 0-17.04-6.66-33-18.66-45.06C536.3 446.3 322.34 299.48 298.04 282.8L249.5 249.5 282.8 298.04C299.48 322.34 446.3 536.36 467 557.06z" p-id="5075"></path><path d="M512 62L483.5 62l0 186.6c0 15.72 12.78 28.56 28.56 28.56 15.72 0 28.5-12.78 28.5-28.56L540.56 120.08C745.82 134.78 904.94 304.76 904.94 512c0 216.66-176.28 392.94-392.94 392.94S119.06 728.66 119.06 512c0-104.88 40.8-203.52 114.96-277.74 11.1-11.16 11.1-29.22 0-40.38-10.8-10.8-29.58-10.74-40.38 0C108.74 278.9 62 391.88 62 512c0 248.16 201.9 450 450 450s450-201.84 450-450S760.16 62 512 62z" p-id="5076"></path></svg>