<svg id="透视表" xmlns="http://www.w3.org/2000/svg" viewBox="0 0 124 93"><defs><style>.cls-1{fill:#f2f2f2;}.cls-2{fill:#383838;opacity:0.2;}.cls-3{fill:#fff;}.cls-4{fill:#c2c2c2;}</style></defs><title>datafor-icons</title><rect class="cls-1" x="-0.11" y="0.1" width="124" height="93"/><rect class="cls-2" x="35.91" y="16.92" width="72" height="12"/><circle class="cls-2" cx="21.87" cy="22.92" r="6"/><circle class="cls-3" cx="21.87" cy="22.92" r="4.5"/><circle class="cls-2" cx="21.87" cy="22.92" r="2"/><rect class="cls-3" x="48.01" y="36.82" width="60" height="10"/><circle class="cls-3" cx="35.91" cy="41.82" r="4.5"/><path class="cls-4" d="M35.91,37.82a4,4,0,1,1-4,4,4,4,0,0,1,4-4m0-1a5,5,0,1,0,5,5,5,5,0,0,0-5-5Z"/><rect class="cls-3" x="48.01" y="53.78" width="60" height="10"/><circle class="cls-3" cx="35.91" cy="58.78" r="4.5"/><path class="cls-4" d="M35.91,54.78a4,4,0,1,1-4,4,4,4,0,0,1,4-4m0-1a5,5,0,1,0,5,5,5,5,0,0,0-5-5Z"/><rect class="cls-3" x="48.01" y="70.73" width="60" height="10"/><circle class="cls-3" cx="35.91" cy="75.73" r="4.5"/><path class="cls-4" d="M35.91,71.73a4,4,0,1,1-4,4,4,4,0,0,1,4-4m0-1a5,5,0,1,0,5,5,5,5,0,0,0-5-5Z"/></svg>