<svg id="透视表" xmlns="http://www.w3.org/2000/svg" viewBox="0 0 124 93"><defs><style>.cls-1{fill:#f2f2f2;}.cls-2{opacity:0.3;}.cls-3{opacity:0.1;}.cls-4{fill:#fff;}</style></defs><rect class="cls-1" width="124" height="93"/><g class="cls-2"><path d="M28.51,39.23H23.66V51.4h-3V39.23H15.71V36.7h12.8Z"/><path d="M42,51.4H30.48V36.7H41.73v2.53H33.57v3.45h7.66v2.53H33.57V49H42Z"/><path d="M52.55,44.09,58,51.4h-3.8q-3-4.57-3.16-4.85c-.1-.19-.28-.5-.56-.92a2,2,0,0,0-.22.35,3.69,3.69,0,0,1-.35.57q-.21.35-3.16,4.85H43.13l5.42-7.31L43.62,36.7h3.59L50,41.27a4.45,4.45,0,0,0,.64,1.2c.09-.14.32-.54.7-1.2.19-.32,1.05-1.85,2.6-4.57h3.59Z"/><path d="M71.26,39.23H66.41V51.4h-3V39.23H58.46V36.7h12.8Z"/></g><g class="cls-3"><path d="M63.87,23.53H60.64v8.11h-2V23.53H55.34V21.85h8.53Z"/><path d="M72.87,31.64H65.19V21.85h7.5v1.68H67.25v2.3h5.11v1.69H67.25v2.53h5.62Z"/><path d="M79.91,26.77l3.65,4.87H81c-1.31-2-2-3.11-2.11-3.23a6.57,6.57,0,0,0-.37-.61.77.77,0,0,0-.14.23,3.48,3.48,0,0,1-.24.38c-.09.16-.8,1.23-2.11,3.23H73.62l3.61-4.87L74,21.85h2.39l1.83,3a2.7,2.7,0,0,0,.42.8c.07-.09.22-.36.47-.8l1.74-3h2.39Z"/><path d="M92.37,23.53H89.14v8.11h-2V23.53H83.84V21.85h8.53Z"/></g><g class="cls-3"><path d="M50,59.8H46.63v8.47H44.52V59.8H41.09V58H50Z"/><path d="M59.41,68.27h-8V58h7.83V59.8H53.53v2.4h5.34V64H53.53V66.6h5.88Z"/><path d="M66.75,63.18l3.82,5.09H67.93c-1.37-2.12-2.11-3.25-2.2-3.38s-.2-.34-.4-.64a1.45,1.45,0,0,0-.14.25,2.63,2.63,0,0,1-.25.39c-.1.16-.83,1.29-2.2,3.38H60.19L64,63.18,60.53,58H63c1.18,2,1.81,3,1.91,3.19a3.08,3.08,0,0,0,.44.83c.07-.1.23-.37.49-.83.13-.23.74-1.29,1.81-3.19h2.5Z"/><path d="M79.78,59.8H76.4v8.47H74.29V59.8H70.87V58h8.91Z"/></g><path class="cls-4" d="M85.09,43.29H81.85V51.4h-2V43.29H76.55V41.6h8.54Z"/><path class="cls-4" d="M94.09,51.4H86.4V41.6h7.5v1.69H88.46v2.3h5.11v1.68H88.46V49.8h5.63Z"/><path class="cls-4" d="M101.12,46.52l3.65,4.88h-2.53c-1.31-2-2-3.11-2.11-3.24a7,7,0,0,0-.37-.61,1.25,1.25,0,0,0-.14.24,2.89,2.89,0,0,1-.24.37c-.09.16-.79,1.24-2.11,3.24H94.84l3.61-4.88L95.16,41.6h2.39c1.13,1.88,1.74,2.89,1.83,3a3.47,3.47,0,0,0,.42.8c.07-.1.22-.36.47-.8l1.74-3h2.39Z"/><path class="cls-4" d="M113.59,43.29h-3.24V51.4h-2V43.29h-3.29V41.6h8.54Z"/></svg>